<svg width="146" height="46" viewBox="0 0 146 46" fill="none" xmlns="http://www.w3.org/2000/svg">
<path d="M9.5 3.125C9.875 3.29167 10.0833 3.45833 10.125 3.625V3.875C10.125 4 9.83333 4.58333 9.25 5.625C9.16667 5.77083 9.125 5.97917 9.125 6.25C9.45833 7.9375 12.2917 10.6875 17.625 14.5C18.625 14.7292 19.125 15.1875 19.125 15.875C19.875 16.625 20.25 17.125 20.25 17.375C19.9167 20.1458 19.75 21.8958 19.75 22.625V25.75C19.75 29 20.1667 32.125 21 35.125C21 35.3333 20.625 36.2083 19.875 37.75C19.875 38.1875 19.125 38.6042 17.625 39C15.0208 40.125 13.2708 41.2083 12.375 42.25C12.0417 42.4375 10.75 43.4375 8.5 45.25H8C7.83333 45.25 7.75 45.1667 7.75 45C7.75 44.8333 7.875 44.75 8.125 44.75V44.5C8.02083 44.5 6.85417 43.25 4.625 40.75C2.91667 39.3958 1.41667 38.4792 0.125 38V37.625L0.25 37.375C0.0833333 37.375 0 37.2917 0 37.125C0.354167 26.9583 0.6875 21.875 1 21.875C1.39583 21.6875 1.85417 21.2292 2.375 20.5C2.54167 20.4167 2.66667 20.375 2.75 20.375L3.25 20.5C4.6875 19.7292 5.8125 19.2292 6.625 19C4.04167 16.9792 2.75 15.3958 2.75 14.25C2.60417 14.25 2.52083 13.7917 2.5 12.875C2.5 10.2083 3.33333 8.04167 5 6.375C5.10417 6.375 5.85417 5.66667 7.25 4.25C8.60417 3.5 9.35417 3.125 9.5 3.125ZM5.5 8.875V9H5.625C5.625 8.83333 6.33333 8.125 7.75 6.875H7.5C6.1875 7.9375 5.52083 8.60417 5.5 8.875ZM5.75 9.625C6.72917 8.85417 7.52083 8.3125 8.125 8V7.875L8 7.625C7.79167 7.64583 7.04167 8.3125 5.75 9.625ZM8.375 8.375C6.89583 9.45833 5.77083 10.4583 5 11.375V12.125C6.08333 10.9167 7.33333 9.83333 8.75 8.875C8.625 8.54167 8.5 8.375 8.375 8.375ZM5.125 12.75C5.375 13.3125 5.5 13.6458 5.5 13.75C6.10417 13.3958 7.52083 12.1458 9.75 10C9.75 9.95833 9.58333 9.75 9.25 9.375C8.0625 9.9375 6.77083 11.0625 5.375 12.75H5.125ZM3.5 10C3.25 11.7708 3.125 12.8125 3.125 13.125C3.125 15.0833 4.58333 16.9167 7.5 18.625C7.89583 18.375 8.14583 18.25 8.25 18.25V18C5.08333 16.4583 3.5 14.25 3.5 11.375V11.25C3.5 10.9583 3.54167 10.5833 3.625 10.125V10H3.5ZM10.25 10.375C7.66667 12.875 6.20833 14.125 5.875 14.125C6.29167 14.9583 7.58333 16 9.75 17.25C10.0833 17.625 10.25 17.8333 10.25 17.875C12.2292 16.1875 13.6875 15.0208 14.625 14.375V14.25C14.625 14.1458 14.375 13.9375 13.875 13.625H13.75C13.25 13.8542 12 15.0208 10 17.125C9.83333 17.125 9.75 17 9.75 16.75C9.97917 16.1458 11.1458 14.9375 13.25 13.125L12.375 12.5C10.3542 14.8333 9.02083 16 8.375 16C8.20833 16 8.125 15.9167 8.125 15.75C10.5417 13.7292 11.75 12.5208 11.75 12.125V12C11.75 11.875 11.625 11.75 11.375 11.625C9.0625 14.0417 7.60417 15.25 7 15.25L6.75 14.875C8.27083 13.8958 9.64583 12.6458 10.875 11.125V11C10.875 10.8958 10.6667 10.6875 10.25 10.375ZM10.875 18.125V18.25C11.0833 18.25 11.375 18.4167 11.75 18.75L16 15.125V15C15.8958 15 15.6458 14.875 15.25 14.625C15.1667 14.625 13.7083 15.7917 10.875 18.125ZM16.375 15.625C13.9792 17.6667 12.5625 18.8333 12.125 19.125V19.375C12.25 19.375 12.4167 19.4583 12.625 19.625C14.4792 18.4375 16.0625 17.2292 17.375 16C16.9583 15.75 16.625 15.625 16.375 15.625ZM13.25 19.875V20C13.25 20.1042 13.4583 20.3125 13.875 20.625C14.7292 19.7917 15.9792 18.7083 17.625 17.375H17.75C17.9167 17.3958 18 17.4792 18 17.625V17.75C15.7083 19.875 14.4167 21 14.125 21.125V21.625H14.25C15.9375 20.3333 17.1875 19.2917 18 18.5H18.125C18.2917 18.5208 18.375 18.6042 18.375 18.75V19C17.7708 19.625 16.3958 20.7917 14.25 22.5V23.25H14.375C15.5833 22.2708 16.7083 21.2708 17.75 20.25H18C18.1667 20.2708 18.25 20.3542 18.25 20.5C16.25 22.6042 14.9167 23.7708 14.25 24V25C16.1875 23.2708 17.3125 22.2292 17.625 21.875H17.75C17.9167 21.8958 18 21.9792 18 22.125V22.25C17.25 23.1042 16 24.3125 14.25 25.875V27C15.9375 25.5625 17.1042 24.5208 17.75 23.875C17.9167 23.8958 18 23.9792 18 24.125V24.375C16.3125 26.1458 15.0625 27.2292 14.25 27.625V28.75C14.4167 28.75 14.5 28.7917 14.5 28.875C17 27.2292 18.25 25.8958 18.25 24.875V22.25C18.25 21.0833 18.4167 19.5417 18.75 17.625C18.1667 17.2083 17.875 16.875 17.875 16.625H17.625C15.1042 18.7292 13.6458 19.8125 13.25 19.875ZM9.5 19.375V19.5C9.64583 20.0208 10.3542 20.7292 11.625 21.625C11.9583 21.9167 12.125 24.2083 12.125 28.5V31.875C12.125 32.5833 12.1667 33.7083 12.25 35.25H12.625L13 35C12.8333 34.25 12.75 33.25 12.75 32V24.375C12.75 22.2083 12.5 21.125 12 21.125C11.0625 20.2708 10.2292 19.6875 9.5 19.375ZM9.25 20.375C9.58333 23.0833 9.75 25.2083 9.75 26.75V29.125C9.75 30.9375 9.66667 32.2708 9.5 33.125C10.3125 34.0417 10.9792 34.6667 11.5 35H11.625C11.5417 34.1667 11.5 33.5417 11.5 33.125V29C11.5 24.0833 11.25 21.625 10.75 21.625C10.4583 21.625 9.95833 21.2083 9.25 20.375ZM3.25 23.625V23.875C4.5 22.5 5.625 21.4167 6.625 20.625H6.5C5.77083 20.9375 4.6875 21.9375 3.25 23.625ZM3.125 25.25C4.1875 24.0833 5.77083 22.5833 7.875 20.75V20.625H7.75C4.66667 23.0625 3.125 24.6042 3.125 25.25ZM3.125 25.875V27.875C3.25 27.875 3.375 27.75 3.5 27.5L3.25 27.125V27C3.29167 26.75 4.83333 25.1667 7.875 22.25V21.75H7.75C6.4375 22.8333 4.9375 24.2083 3.25 25.875H3.125ZM3.375 22V22.5C3.47917 22.5 3.6875 22.2917 4 21.875H3.875C3.72917 21.9583 3.5625 22 3.375 22ZM0.625 36.125C1.04167 35.9167 1.25 35.5833 1.25 35.125V34C1.58333 27.1042 1.75 23.1875 1.75 22.25C1.83333 22.25 1.875 22.2083 1.875 22.125H1.75C1.35417 22.125 1.10417 24.5417 1 29.375C0.9375 29.375 0.8125 31.625 0.625 36.125ZM5.75 25.125H5.875C6.20833 24.8125 6.91667 24.1875 8 23.25V23C6.5 24.3333 5.75 25.0417 5.75 25.125ZM2.75 33.5V33.625H2.875C2.875 33.2083 4.66667 31.4583 8.25 28.375V26.5C6.6875 27.9167 5.0625 29.7083 3.375 31.875C3.25 31.875 3.125 31.75 3 31.5C4.02083 29.9583 5.6875 28.0833 8 25.875H8.125V25C5.66667 26.8958 4.20833 28.5208 3.75 29.875L3.5 30H3.375C3.20833 30 3.125 29.9167 3.125 29.75C3.72917 28.0625 5.39583 26.2292 8.125 24.25V24C7.83333 24 6.16667 25.5833 3.125 28.75C2.875 30.4583 2.75 32.0417 2.75 33.5ZM14.875 29.5H14.25V30.625C15.7708 29.625 16.7708 28.6667 17.25 27.75H17.375C17.5417 27.7708 17.625 27.8542 17.625 28V28.375C16.5417 29.7083 15.4583 30.6667 14.375 31.25V32.625C16 31.3958 17.1667 30.3125 17.875 29.375C18 29.375 18.125 29.5 18.25 29.75C18.25 30.1458 17 31.3542 14.5 33.375C14.4167 33.5208 14.375 33.6875 14.375 33.875V34.375H14.5C16.9167 32.2083 18.25 30.9583 18.5 30.625C18.4167 30.375 18.2917 29.125 18.125 26.875C18.2083 26.875 18.25 26.8333 18.25 26.75H18.125C17.3333 27.5417 16.25 28.4583 14.875 29.5ZM3.125 34L2.75 33.75V35.25C2.77083 35.4167 2.85417 35.5 3 35.5C5.375 32.3333 7 30.75 7.875 30.75L8 31C5.8125 32.8958 4.35417 34.4792 3.625 35.75V35.875C3.70833 35.875 3.83333 35.9167 4 36C4 35.7917 5.20833 34.5417 7.625 32.25C7.79167 32.2708 7.875 32.3542 7.875 32.5V32.75C6.02083 34.6458 4.89583 35.8542 4.5 36.375C5 36.7917 5.29167 37 5.375 37C6.33333 35.875 7.29167 34.8333 8.25 33.875L8 33.375C8.16667 31.8125 8.25 30.4792 8.25 29.375H8.125C6.14583 31 4.47917 32.5417 3.125 34ZM15.25 34.5C15.3333 34.5 15.375 34.5417 15.375 34.625C15.5 34.625 15.875 34.3333 16.5 33.75H16.625L17 34C17.6458 32.9375 18.0208 32.3958 18.125 32.375L18.625 32.75L18.75 32.5V31.5H18.625L15.25 34.5ZM16.25 35.625H16.375C17.6042 35.2083 18.5208 35 19.125 35H19.375V34.625C19.125 33.8125 19 33.3542 19 33.25C18.1667 33.6667 17.25 34.4583 16.25 35.625ZM5.875 37.375C5.89583 37.5417 5.97917 37.625 6.125 37.625H6.25L9 34.875C9 34.75 8.875 34.625 8.625 34.5C8.4375 34.5208 7.52083 35.4792 5.875 37.375ZM6.75 38.25L7.125 38.5C9.04167 36.7292 10 35.8125 10 35.75L9.5 35.375C7.66667 36.875 6.75 37.8333 6.75 38.25ZM0.5 37.5C3.25 38.5417 5.79167 40.6667 8.125 43.875H8.25C8.4375 43.875 8.64583 43.4167 8.875 42.5C5.77083 39.125 3.4375 37.1667 1.875 36.625C1.875 36.5 1.75 36.375 1.5 36.25C1.125 36.5208 0.791667 36.9375 0.5 37.5ZM10.375 36.25C8.5625 38 7.64583 38.9167 7.625 39L8.125 39.375L11.125 36.5C10.8542 36.3333 10.6042 36.25 10.375 36.25ZM9 44H9.125C12.7292 40.75 16.0208 38.7083 19 37.875C19.1667 37.875 19.4167 37.375 19.75 36.375C18.4583 36.375 16.25 37.1667 13.125 38.75C11.7917 39.8125 10.6667 41.0208 9.75 42.375C9.5625 42.5417 9.3125 43.0833 9 44ZM13.5 36.875H13.75V36.625C13.5833 36.6458 13.5 36.7292 13.5 36.875ZM8.625 39.875C8.625 39.9792 8.83333 40.1875 9.25 40.5H9.375C9.375 40.3542 9.5 40.1458 9.75 39.875L9.5 39.5C11.125 37.8333 12.0833 37 12.375 37V36.75H11.875C10.7708 37.6458 9.6875 38.6875 8.625 39.875ZM30.5938 4.75C31.9896 5.97917 33.3646 7.72917 34.7188 10V10.125C34.7188 11.0208 34.0938 11.7708 32.8438 12.375C31.4688 13.4167 30.4271 14.25 29.7188 14.875C29.9062 14.875 30.2812 15.1667 30.8438 15.75L31.0938 15.625C31.1979 15.625 31.3646 15.9583 31.5938 16.625C32.1146 17.3125 32.9062 18.2708 33.9688 19.5L33.7188 21.375C33.8021 22.6042 33.8438 23.4375 33.8438 23.875L33.2188 33.75C33.2188 35.0833 33.5938 35.75 34.3438 35.75C34.6146 35.75 35.1146 35.5833 35.8438 35.25C36.3438 35.4375 36.5938 35.7292 36.5938 36.125C36.2812 36.625 36.0729 37.2917 35.9688 38.125C34.3646 39.625 32.6979 41.4583 30.9688 43.625C29.7604 42.3333 27.8854 41.0417 25.3438 39.75C25.0938 39.75 24.9688 39.625 24.9688 39.375C24.9688 39.2917 25.0104 39.25 25.0938 39.25L24.9688 38.625V36.875C24.9688 27.625 24.6771 23 24.0938 23C24.0938 22.8542 23.5104 22.3542 22.3438 21.5V21.375C22.7396 20.0833 23.5729 19.0417 24.8438 18.25C25.4271 17.6667 26.8854 16.5 29.2188 14.75V14.5C29.2188 14.0833 27.9688 12.75 25.4688 10.5V10.25C25.4688 9.47917 26.8021 7.6875 29.4688 4.875C29.7604 4.875 30.1354 4.83333 30.5938 4.75ZM29.9688 6.5C29.6354 6.875 29.4688 7.08333 29.4688 7.125H29.5938C29.5938 7.08333 29.7604 6.875 30.0938 6.5H29.9688ZM30.5938 6.875L27.9688 9.75L28.5938 10.125C30.0729 8.375 30.9062 7.5 31.0938 7.5V7.375C31.0938 7.25 30.9271 7.08333 30.5938 6.875ZM28.9688 10.625C29.0521 10.625 29.0938 10.6667 29.0938 10.75C29.4271 10.6458 30.3021 9.89583 31.7188 8.5H31.8438C31.6771 8.29167 31.5938 8.125 31.5938 8H31.3438C31.2812 8 30.4896 8.875 28.9688 10.625ZM29.7188 11.25C29.7396 11.4167 29.8229 11.5 29.9688 11.5C31.4271 10.1667 32.3021 9.5 32.5938 9.5C32.5938 9.375 32.4271 9.20833 32.0938 9L29.7188 11.25ZM26.0938 10V10.25C28.1771 12.0625 29.2188 13.1458 29.2188 13.5H29.3438V13.25C28.7396 12.3958 27.6562 11.3125 26.0938 10ZM30.8438 13.125C30.9062 13.125 31.8646 12.4167 33.7188 11H33.5938C33.4479 11 32.5312 11.7083 30.8438 13.125ZM29.9688 13.625V13.75H30.2188V13.625H29.9688ZM25.2188 19.75C25.2396 19.9167 25.3229 20 25.4688 20C26.0312 19.6875 27.4062 18.5625 29.5938 16.625H29.3438C29.2604 16.625 27.8854 17.6667 25.2188 19.75ZM29.9688 17.125C27.4896 19.2917 26.1562 20.375 25.9688 20.375C26.3021 21.0417 26.5104 21.375 26.5938 21.375C29.0729 19.0417 30.4062 17.875 30.5938 17.875V17.75C30.5938 17.6458 30.3854 17.4375 29.9688 17.125ZM30.8438 18.25L26.7188 22.125V22.875H26.8438C27.5729 22.1458 28.9896 20.9375 31.0938 19.25H31.2188C31.3854 19.2708 31.4688 19.3542 31.4688 19.5V19.625C29.0521 21.6875 27.5104 23.1042 26.8438 23.875V24.375C26.8646 24.5417 26.9479 24.625 27.0938 24.625C27.0938 24.4792 27.9271 23.6458 29.5938 22.125C29.7812 21.8125 30.1146 21.5208 30.5938 21.25H30.7188C30.8854 21.2708 30.9688 21.3542 30.9688 21.5V21.625C28.3021 24.1458 26.9688 25.4375 26.9688 25.5L27.0938 26.125L30.9688 22.5H31.0938C31.2604 22.5208 31.3438 22.6042 31.3438 22.75V22.875C31.3438 22.9792 29.9688 24.3125 27.2188 26.875V28C29.5729 25.5208 31.0729 24.0625 31.7188 23.625H31.8438C32.0104 23.6458 32.0938 23.7292 32.0938 23.875V24C29.0104 27.0208 27.4688 28.5625 27.4688 28.625H27.2188L27.3438 29.25V30H27.4688C30.0521 27 31.5521 25.5 31.9688 25.5C31.9688 25.5833 32.0104 25.625 32.0938 25.625L32.2188 25V20.625L32.3438 19.75C32.2604 19.75 31.7604 19.25 30.8438 18.25ZM23.2188 21L23.0938 21.25V21.375C24.5104 22.1458 25.2188 23.1458 25.2188 24.375H25.3438V24C25.3438 22.0833 24.8854 21.125 23.9688 21.125L23.2188 21ZM25.3438 25.5V25.625C25.5104 27.8333 25.5938 30.625 25.5938 34V37.25H25.7188L25.8438 36V34.125C25.8438 29.8958 25.7188 27.0208 25.4688 25.5H25.3438ZM27.3438 30.75V33.875C29.0312 31.7292 30.3229 30.2708 31.2188 29.5H31.3438C31.5104 29.5208 31.5938 29.6042 31.5938 29.75V29.875C30.3438 31.2083 29.0104 32.7917 27.5938 34.625H27.3438V36.625L27.2188 37.25L28.7188 38.375H28.8438C28.8438 38.1458 29.5938 37.0625 31.0938 35.125C31.4271 34.4792 31.6354 34.1042 31.7188 34V33.375C29.8854 35.8958 28.8854 37.1875 28.7188 37.25H28.5938C28.4271 37.25 28.3438 37.1667 28.3438 37V36.875C30.2188 34.2917 31.2188 33 31.3438 33L31.7188 33.25C31.7188 32.5 31.7604 32 31.8438 31.75C31.5312 31.9583 30.3646 33.2917 28.3438 35.75H28.2188C28.0521 35.75 27.9688 35.6667 27.9688 35.5V35.375C29.3021 33.5208 30.5938 32.0208 31.8438 30.875C31.9062 30.3958 31.9896 29.3542 32.0938 27.75V27.625H31.9688L28.2188 32C28.2188 32.1667 28.1354 32.25 27.9688 32.25H27.7188C27.5521 32.25 27.4688 32.1667 27.4688 32C28.9688 30.0625 30.3854 28.4792 31.7188 27.25L32.0938 27.5V26.125H31.9688C31.4271 26.5417 29.9688 28.0833 27.5938 30.75H27.3438ZM31.7188 35.125C31.7188 35.5208 30.8438 36.6875 29.0938 38.625H28.9688V38.75C29.3854 39 29.7188 39.125 29.9688 39.125C31.4062 37.125 32.1562 36.125 32.2188 36.125C32.0521 35.875 31.9688 35.5417 31.9688 35.125H31.7188ZM32.4688 36.625C31.0521 38.6667 30.3438 39.75 30.3438 39.875L30.7188 40.125C31.1562 39.4375 32.0312 38.4375 33.3438 37.125C33.2604 37.125 33.0104 36.9583 32.5938 36.625H32.4688ZM31.2188 42.375C32.6354 40.625 34.0521 39.0417 35.4688 37.625V37.375C32.8229 39.6458 31.4062 41.3125 31.2188 42.375ZM25.8438 38.25C25.8438 38.4167 25.7604 38.7083 25.5938 39.125C25.8229 39.125 27.4896 40.1667 30.5938 42.25L30.7188 42C30.5312 42 29.6979 41.3333 28.2188 40L26.0938 38.25H25.8438ZM45.8125 15.75C46.7292 15.9375 47.1875 16.3958 47.1875 17.125C48.0208 19.125 48.4375 20.4583 48.4375 21.125C48.4375 23.375 48.3958 26.6667 48.3125 31C49 33.8333 49.7083 35.25 50.4375 35.25C50.4375 35.375 50.6042 35.5417 50.9375 35.75V31C50.7708 24.8333 50.3958 21.75 49.8125 21.75L48.5625 20.375C48.5625 19.6667 49.4792 19.125 51.3125 18.75L55.5625 16.875C56.4792 16.125 57.1458 15.75 57.5625 15.75H58.3125C59.1042 15.75 59.6875 18.3333 60.0625 23.5V28.5C60.0625 30.75 59.7292 31.875 59.0625 31.875C54.8542 35.375 51.3958 38.5833 48.6875 41.5C48.4167 41.9792 48.125 42.3125 47.8125 42.5H47.5625C46.375 42.5 44.5417 40.75 42.0625 37.25C42.0625 37.1667 41.3958 36.5 40.0625 35.25V32.75C40.3958 30.9375 40.6042 29.0208 40.6875 27C40.6875 23.75 40.4375 22.125 39.9375 22.125L39.1875 22L38.8125 22.25H38.6875C38.5208 22.25 38.3958 21.75 38.3125 20.75C38.1458 20.75 38.0625 20.6667 38.0625 20.5V20C38.375 19.6458 40.9583 18.2292 45.8125 15.75ZM56.0625 18H56.1875L56.9375 17.5H57.0625C57.2292 17.5208 57.3125 17.6042 57.3125 17.75C57.125 18.0625 55.75 19.0625 53.1875 20.75C53.2708 20.8958 53.3125 21.0625 53.3125 21.25H53.5625L58.0625 17.875C58.0625 17.2917 57.8958 17 57.5625 17C56.875 17.3333 56.375 17.6667 56.0625 18ZM44.9375 17.75C45.0208 17.9167 45.0625 18.0417 45.0625 18.125C44.4583 18.4792 43.4583 19.2292 42.0625 20.375L42.4375 20.625L45.6875 17.875H45.8125C45.9792 17.8958 46.0625 17.9792 46.0625 18.125C45.3125 18.9792 44.1458 20.0208 42.5625 21.25C42.6458 21.4167 42.6875 21.5417 42.6875 21.625L46.3125 18.625C46.1458 17.7083 45.9375 17.25 45.6875 17.25C45.1875 17.5208 44.9375 17.6875 44.9375 17.75ZM41.1875 19.5C41.1875 19.625 41.3125 19.75 41.5625 19.875H41.6875C42.875 18.9583 43.5417 18.5 43.6875 18.5V18.375H43.5625C42.125 19.125 41.3333 19.5 41.1875 19.5ZM52.5625 19.625C52.7292 19.8958 52.8125 20.1042 52.8125 20.25H52.9375L55.5625 18.5V18.375H55.1875C54.25 18.7083 53.375 19.125 52.5625 19.625ZM53.6875 21.75V22.875H53.8125L57.5625 20C57.7292 20.0208 57.8125 20.1042 57.8125 20.25V20.375C57.8125 20.5 56.4375 21.625 53.6875 23.75V24.5L53.8125 24.75C56.2083 22.75 57.5833 21.75 57.9375 21.75L58.0625 22C55.3958 24.3333 53.8958 25.5 53.5625 25.5V26.375H53.6875C55.25 25.0625 56.625 23.9792 57.8125 23.125C57.9792 23.1458 58.0625 23.2292 58.0625 23.375V23.5L53.9375 27C54.1042 27 54.1875 27.1667 54.1875 27.5C56.6042 25.5833 57.9792 24.625 58.3125 24.625L58.4375 24.875V25C57.9583 25.5417 56.8333 26.375 55.0625 27.5C55.0625 27.5625 54.5208 27.9792 53.4375 28.75V29.5L53.9375 29.125L54.3125 29.375C55.5 28.3542 56.7917 27.3958 58.1875 26.5H58.4375C58.6042 26.5208 58.6875 26.6042 58.6875 26.75C55.6875 29.0833 53.9792 30.25 53.5625 30.25C53.5625 30.1667 53.5208 30.125 53.4375 30.125V33C55.2708 31.2708 56.8958 29.8958 58.3125 28.875H58.4375C58.6042 28.8958 58.6875 28.9792 58.6875 29.125V29.25L56.9375 30.625L57.5625 30.25H57.6875C57.8542 30.2708 57.9375 30.3542 57.9375 30.5C56.3125 31.8542 54.8125 33.2292 53.4375 34.625V34.875C56.3125 32.75 58.0625 31.25 58.6875 30.375C58.7708 29.8333 58.8125 29.2917 58.8125 28.75V28.375H58.6875C57.1875 29.2292 55.6458 30.3958 54.0625 31.875H53.9375C53.7708 31.875 53.6875 31.7917 53.6875 31.625C54.7917 30.375 56.5 29 58.8125 27.5V23.625C58.625 20.2917 58.4167 18.625 58.1875 18.625L53.6875 21.75ZM42.8125 22.25C42.8958 23.0833 42.9375 23.7083 42.9375 24.125V24.5H43.0625C44.1042 23.2708 45.4375 21.8958 47.0625 20.375C47.0625 19.7708 46.8542 19.4375 46.4375 19.375C45.8958 19.6667 44.6875 20.625 42.8125 22.25ZM49.6875 20.5V20.625C50.6875 21.4167 51.1875 22.7917 51.1875 24.75C51.4375 26.2083 51.5625 28.25 51.5625 30.875V35.5L51.4375 36.375L51.9375 36.625C52.1042 36.3125 52.1875 35.9792 52.1875 35.625V29.125C52.3542 25.4583 52.4375 23.4583 52.4375 23.125V22.375C51.9792 20.9583 51.5625 20.1667 51.1875 20C50.5417 20.3333 50.0417 20.5 49.6875 20.5ZM39.0625 20.75V21.375H39.3125C40.5625 21.375 41.1875 22.1667 41.1875 23.75C41.2708 25.6042 41.3125 27.1042 41.3125 28.25C41.3125 28.9375 41.1042 30.4792 40.6875 32.875V35C42.0208 36.1875 43.3125 37.7292 44.5625 39.625C46.0833 41.125 47.125 41.875 47.6875 41.875L47.9375 41.5C47.6667 41.5 47.5 41.25 47.4375 40.75H47.3125C47 41 46.75 41.125 46.5625 41.125L46.3125 40.75C46.3125 40.5833 46.4375 40.5 46.6875 40.5V40.375C45.3333 39.6458 44 38.3542 42.6875 36.5C41.7917 35.75 41.3333 35.1667 41.3125 34.75L41.8125 29.625C41.8125 29.2292 41.7708 28.2708 41.6875 26.75L41.8125 25.25C41.8125 22.0833 41.1875 20.5 39.9375 20.5L39.0625 20.75ZM42.9375 25.25V26.25H43.0625C45.3958 23.75 46.7708 22.5 47.1875 22.5V21.125C46.9375 21.1667 45.5625 22.5417 43.0625 25.25H42.9375ZM42.9375 26.875C42.9375 27.2917 42.9792 27.9167 43.0625 28.75H43.1875C43.1875 28.6042 44.4792 27.2292 47.0625 24.625C47.1458 24.4792 47.1875 24.3125 47.1875 24.125V23.25C46.9375 23.25 45.6042 24.4583 43.1875 26.875H42.9375ZM42.9375 30.625H43.0625C45.1667 28.4167 46.5 27.25 47.0625 27.125C47.1458 26.9792 47.1875 26.8125 47.1875 26.625V25.375C44.4375 28.0833 43.0625 29.5833 43.0625 29.875C43.0625 30.25 43.0208 30.5 42.9375 30.625ZM53.4375 27.25V27.375C53.5625 27.375 53.6875 27.25 53.8125 27H53.6875C53.5208 27.0208 53.4375 27.1042 53.4375 27.25ZM42.9375 31.25V31.375C42.6875 33.1667 42.5625 34.2917 42.5625 34.75L43.0625 35.25C43.0625 34.8958 44.3958 33.4792 47.0625 31V29.875C46.7917 29.875 45.5833 31.0833 43.4375 33.5H43.3125C43.1458 33.5 43.0625 33.4167 43.0625 33.25V33.125C45.25 30.5417 46.5833 29.25 47.0625 29.25V27.75H46.9375C46.1667 28.375 44.9167 29.5417 43.1875 31.25H42.9375ZM47.0625 31.75C44.6875 34.1667 43.4375 35.375 43.3125 35.375C43.6042 35.875 43.8125 36.125 43.9375 36.125C45.3125 34.5625 46.4792 33.4375 47.4375 32.75C47.3958 32.0833 47.2708 31.75 47.0625 31.75ZM44.3125 36.5C44.3333 36.6667 44.4167 36.75 44.5625 36.75C46.1042 35.125 47.1042 34.2083 47.5625 34C47.6875 34 47.8125 34.125 47.9375 34.375C47.2083 34.8958 46.2083 35.8542 44.9375 37.25C45.1042 37.4583 45.1875 37.625 45.1875 37.75C46.7292 36.25 47.5625 35.5 47.6875 35.5H47.8125C47.9792 35.5208 48.0625 35.6042 48.0625 35.75V35.875C47.1875 36.5208 46.3958 37.2708 45.6875 38.125V38.25C45.8125 38.25 46.0625 38.375 46.4375 38.625C46.4375 38.3125 47.3125 37.4375 49.0625 36V35.875L47.5625 33.5H47.4375C47.2292 33.5 46.1875 34.5 44.3125 36.5ZM49.5625 36.25C48.2708 37.25 47.3542 38.1667 46.8125 39C47.1667 39.3333 47.5 39.5 47.8125 39.5C47.8333 39.3125 48.2917 38.7708 49.1875 37.875H49.3125C49.4792 37.8958 49.5625 37.9792 49.5625 38.125C49.2917 38.5417 48.8333 39.125 48.1875 39.875L48.4375 40C49.125 39.1667 49.9167 38.2917 50.8125 37.375L49.5625 36.25ZM73 0C73.5 0 73.75 0.291667 73.75 0.875C73.75 1.125 73.2083 1.5 72.125 2C71.6042 3.72917 71.1875 9.4375 70.875 19.125C73.75 17.0833 76.0417 15.2917 77.75 13.75H78.125C78.125 13.8333 78.1667 13.875 78.25 13.875C78.25 13.75 78.375 13.625 78.625 13.5H78.75C79.3125 13.5 79.6875 13.9583 79.875 14.875C81.3958 15.75 82.5208 17.2083 83.25 19.25V21.5C82.5 26 82.125 29.4167 82.125 31.75L80 36.625L76.125 39.5C74.5417 40.3333 72.75 41.5417 70.75 43.125H70.625C70.1875 43.125 69.6042 42.5 68.875 41.25C66.6875 39.3958 65.0625 38.1042 64 37.375C62.9167 36.1042 62.375 34.8958 62.375 33.75C62.2917 33.75 62.25 33.1667 62.25 32V31C62.25 29.6458 62.375 27.8958 62.625 25.75C62.2083 17.4792 62 12.1042 62 9.625C62.5 7.83333 63.625 6.41667 65.375 5.375C68.3542 2.29167 70.8958 0.5 73 0ZM64.5 8.125V8.25C66.9167 6.16667 68.5417 4.83333 69.375 4.25H69.5C69.6667 4.27083 69.75 4.35417 69.75 4.5V4.625C69.5833 4.95833 69.375 5.125 69.125 5.125V5.375C69.375 5.375 69.5 5.45833 69.5 5.625V5.75C66.6667 8.33333 65.25 9.79167 65.25 10.125H65.375C66.3125 9.1875 67.8958 7.77083 70.125 5.875V5.5C70.125 4.66667 70.2083 3.83333 70.375 3C69.1667 3.8125 67.2083 5.52083 64.5 8.125ZM68.5 5.625C66.4583 7.54167 65.3333 8.5 65.125 8.5V8.625C65.1458 8.79167 65.2292 8.875 65.375 8.875C65.375 8.8125 66.4583 7.72917 68.625 5.625H68.5ZM64.875 11.375V12H65C67.8125 9.16667 69.4375 7.75 69.875 7.75V7.125H69.75C68.25 8.375 66.625 9.79167 64.875 11.375ZM65 12.75V13.375H65.125C68.2083 10.6667 69.75 9.25 69.75 9.125L69.875 8.5H69.75C69.0833 8.9375 67.5417 10.3542 65.125 12.75H65ZM63 9L62.75 9.875V11.25C62.75 12.4792 62.7917 13.8958 62.875 15.5C62.7917 15.9375 62.75 16.3542 62.75 16.75C63.0833 18.8958 63.25 21.3125 63.25 24V25.625C63 29.2292 62.875 31.3125 62.875 31.875C62.9583 32.8542 63 33.5625 63 34H63.125C63.125 33.8333 63.1667 33.75 63.25 33.75C63.1667 33.5833 63.125 33.4583 63.125 33.375C63.4583 32.2917 63.625 28.4583 63.625 21.875C63.625 16.4792 63.4583 12.1875 63.125 9H63ZM64.625 9.25V9.625C64.75 9.625 64.875 9.5 65 9.25V9.125C64.8333 9.20833 64.7083 9.25 64.625 9.25ZM65 14.125V15.25C67.0625 13.2083 68.6042 11.7917 69.625 11C69.625 10.9375 69.6667 10.6875 69.75 10.25L65.125 14.125H65ZM65.125 16.25V17.5C67.7708 14.8333 69.2292 13.5 69.5 13.5V13.125L69.625 11.875C69.3542 11.9167 67.8542 13.375 65.125 16.25ZM65.25 18.375V19.125C67.9583 16.2917 69.375 14.875 69.5 14.875V14.25L65.25 18.375ZM78.25 15.25C77.5208 15.9792 76.0208 17.2292 73.75 19L74.625 19.125C76.0625 17.7917 77.5208 16.8333 79 16.25V16.125C78.6042 15.5417 78.3542 15.25 78.25 15.25ZM69.25 15.75C69.25 15.9167 67.9167 17.4167 65.25 20.25V20.75C67.6458 18.1875 69.0208 16.8958 69.375 16.875V16L69.5 15.75H69.25ZM75.125 19.375V19.5C75.125 19.6875 75.3333 19.8125 75.75 19.875L79.875 17V16.875C79.875 16.7083 79.7917 16.625 79.625 16.625H79.5C77.4792 17.8125 76.0208 18.7292 75.125 19.375ZM76 20.5L76.625 21.25C79.1667 19.25 80.5833 18.25 80.875 18.25H81.125C80.7917 17.7708 80.625 17.4792 80.625 17.375H80.375C79.5417 18.0417 78.0833 19.0833 76 20.5ZM65.25 21.875V23.375C67.8958 20.375 69.2708 18.875 69.375 18.875V17.625C67.75 18.9583 66.375 20.375 65.25 21.875ZM76.75 22V22.375C77.0208 22.375 77.2292 22.4167 77.375 22.5C78.375 21.9583 79.5417 21.125 80.875 20H81C81.1667 20.0208 81.25 20.1042 81.25 20.25V20.375C79.3542 22.2917 77.8958 23.25 76.875 23.25L77 24.125V24.625H77.125C78.0625 24 79.6042 22.75 81.75 20.875V20C81.75 19.7292 81.625 19.2708 81.375 18.625H81.25C78.4375 20.6875 76.9375 21.8125 76.75 22ZM65.125 26.125C67.5 23.2917 68.875 21.875 69.25 21.875H69.375L69.25 21V20.5L69.375 19.875C66.625 22.75 65.25 24.375 65.25 24.75C65.1667 25.2083 65.125 25.6667 65.125 26.125ZM70.875 20.75V21.125C70.9583 21.125 71.2917 21.0833 71.875 21C73.5833 21 74.5833 21.8333 74.875 23.5C74.9583 23.8333 75 24.125 75 24.375C75 25.2083 74.9583 27.375 74.875 30.875C74.875 31.3542 74.9583 32.6042 75.125 34.625H75.375V34.5C75.375 33.0625 75.4583 30.6042 75.625 27.125C75.4792 23.125 75.1458 21.125 74.625 21.125C74.625 21 74.25 20.75 73.5 20.375L70.875 20.75ZM70.875 21.875V25.125C71.0417 25.7083 71.125 26.0417 71.125 26.125V29.75C71.125 31.4167 72.1667 32.9167 74.25 34.25H74.375L74.125 30.875C74.2083 28.2708 74.25 26.0208 74.25 24.125C74.25 22.5417 73.3333 21.75 71.5 21.75L70.875 21.875ZM77 25.25C77.0833 25.3125 77.125 25.6875 77.125 26.375C79.25 24.9792 80.75 23.7292 81.625 22.625L81.75 21.875H81.625C79.1042 24.125 77.6042 25.25 77.125 25.25H77ZM65.125 26.875V28.875L65 29.75C65.9583 28.3542 67.1667 26.8958 68.625 25.375H68.875C69.0417 25.3958 69.125 25.4792 69.125 25.625V25.75L68.125 26.875V27.125H68.25L68.75 26.75H69C69.1667 26.7708 69.25 26.8542 69.25 27V27.125C67.625 28.6667 66.25 30.0417 65.125 31.25H65V31.375L65.625 31.5C66.625 30.25 67.625 29.1667 68.625 28.25H68.875C69.0417 28.2708 69.125 28.3542 69.125 28.5C69.0625 28.7708 67.8958 30.0208 65.625 32.25L65.75 32.5V32.75L65.5 33.125H65.625C66.625 32.1875 67.9167 30.8542 69.5 29.125V27.125C69.5 27.0417 69.5417 27 69.625 27C69.4583 26.5833 69.3333 26.375 69.25 26.375L69.375 25.125V22.375C66.75 25.375 65.375 26.875 65.25 26.875H65.125ZM77.125 27.25V28.25C79.8958 26.4375 81.3125 25.0208 81.375 24C78.5833 26.1667 77.1667 27.25 77.125 27.25ZM77.125 28.875V30L80.875 27L81 26.25V26C79.0417 27.9167 77.75 28.875 77.125 28.875ZM66.75 28.5V28.625C66.8125 28.625 67.1458 28.2917 67.75 27.625V27.5H67.625C67.5625 27.5 67.2708 27.8333 66.75 28.5ZM77 30.75V31.375L76.875 32H77C77.9167 31.5208 79.0417 30.5208 80.375 29H80.75V28H80.625C78.5833 29.8333 77.375 30.75 77 30.75ZM76.875 32.75V33.75C77.6875 33.25 78.7708 32.4167 80.125 31.25H80.25L80.625 31.5L80.75 29.75C78.6875 31.7292 77.3958 32.7292 76.875 32.75ZM65 29.875V30.375C65.1667 30.375 65.25 30.2917 65.25 30.125C65.25 29.9583 65.1667 29.875 65 29.875ZM65.75 34.25H65.875C68.0833 32.0833 69.375 31 69.75 31C69.6667 30.6667 69.625 30.375 69.625 30.125C68.3958 31.2292 67.1042 32.6042 65.75 34.25ZM66.25 35.5L66.75 35.875C67.7917 34.875 68.5417 33.9583 69 33.125C69.8333 32.7292 70.25 32.4375 70.25 32.25C70.0833 32.25 69.9583 32 69.875 31.5C67.4583 33.7292 66.25 35.0625 66.25 35.5ZM76.875 34.5V35.25H77C77.2917 34.8958 78.0417 34.3125 79.25 33.5C80 32.8542 80.375 32.3542 80.375 32H80.25C78.3333 33.6667 77.2083 34.5 76.875 34.5ZM68 35.5V35.625C68.8542 34.8542 69.8125 34.1042 70.875 33.375C70.7917 33.2083 70.75 33.0833 70.75 33H70.625C69.875 33.5625 69 34.3958 68 35.5ZM71.375 34L69.125 36.5H69.25L72 34.375L71.375 34ZM63.25 34.875V35C63.8125 36.25 65.5208 37.875 68.375 39.875C68.375 39.9583 68.9583 40.5833 70.125 41.75L70.25 41.5V41.375C66.7917 37.9792 64.4583 35.8125 63.25 34.875ZM70.75 42.25C72.8958 40.6042 74.4792 39.5625 75.5 39.125C76 38.6042 77.3333 37.6458 79.5 36.25C79.6875 35.9375 79.8542 35.4792 80 34.875C79 35.7917 76.7083 37.4167 73.125 39.75C71.5417 41.0833 70.75 41.875 70.75 42.125V42.25ZM72.5 35C72.5 35.25 71.9583 35.9167 70.875 37H71C72.4167 35.9167 73.125 35.3333 73.125 35.25C73 35.25 72.8333 35.1667 72.625 35H72.5ZM68.625 35.875L67.625 36.875L67.875 37L68.75 35.875H68.625ZM74.125 35.875C74.0417 36.1667 72.875 37.375 70.625 39.5C70.6458 39.6667 70.7292 39.75 70.875 39.75C71.8542 38.8333 73.3958 37.6667 75.5 36.25C75.3542 36.25 74.8958 36.125 74.125 35.875ZM70.5 36.25L68.75 37.75V37.875H68.875C69.6042 37.3333 70.1875 36.7917 70.625 36.25H70.5ZM69.75 38.75L70.125 39C71.7292 37.6042 72.5625 36.8125 72.625 36.625C72.5208 36.625 71.5625 37.3333 69.75 38.75ZM104.844 15.0938H105.594C105.865 15.0938 106.073 15.5104 106.219 16.3438C106.719 17.0104 106.969 17.4688 106.969 17.7188C106.802 21.8021 106.635 24.2604 106.469 25.0938C106.865 27.8229 107.156 30.9479 107.344 34.4688C107.594 34.4688 107.719 34.5521 107.719 34.7188L107.469 35.0938V35.4688C107.927 35.8021 108.719 36.1771 109.844 36.5938V37.0938C106.927 39.8229 104.719 41.4062 103.219 41.8438H102.844C101.969 41.8438 101.344 41.3854 100.969 40.4688C100.135 39.1354 99.7188 38.3854 99.7188 38.2188C98.7812 38.7188 97.4896 39.5521 95.8438 40.7188C93.8229 41.7188 92.6146 42.2188 92.2188 42.2188H91.5938C90.6562 41.4479 89.8229 40.4479 89.0938 39.2188C88.0938 38.0938 87.5938 36.6354 87.5938 34.8438V29.9688C87.5938 28.7396 87.6354 27.5729 87.7188 26.4688C87.6354 26.0104 87.5938 25.1771 87.5938 23.9688C87.5938 23.8229 87.6354 23.3229 87.7188 22.4688C87.3229 22.0312 86.8229 21.7396 86.2188 21.5938C85.8854 21.7604 85.5938 21.8438 85.3438 21.8438L85.2188 21.5938V20.9688C85.2188 19.6979 85.8854 18.8229 87.2188 18.3438C90.0729 16.7604 91.6979 15.9688 92.0938 15.9688C92.5521 15.9688 93.6354 16.8438 95.3438 18.5938C95.4271 19.1562 95.4688 19.6146 95.4688 19.9688V22.3438L95.9688 31.0938C95.8854 31.5312 95.8438 32.0312 95.8438 32.5938V32.8438C95.8438 34.1562 96.0104 34.9479 96.3438 35.2188C97.0312 35.2188 97.7812 35.0521 98.5938 34.7188C98.5938 34.6562 98.5521 34.4062 98.4688 33.9688C98.4688 33.1771 98.5104 31.5521 98.5938 29.0938C98.5938 28.8438 98.5104 27.7188 98.3438 25.7188H98.4688L98.3438 25.4688V22.8438C98.3438 21.8854 98.1354 21.3438 97.7188 21.2188H97.5938L96.9688 21.3438L96.8438 21.0938C96.8438 19.4062 98.5938 17.8646 102.094 16.4688C102.823 15.9479 103.74 15.4896 104.844 15.0938ZM100.344 19.8438L100.469 20.5938C103.469 18.3854 104.969 17.0521 104.969 16.5938H104.844C104.219 16.5938 102.719 17.6771 100.344 19.8438ZM105.219 17.2188C105.219 17.3229 103.677 18.6562 100.594 21.2188C100.594 21.4062 100.635 21.5729 100.719 21.7188C100.635 21.8854 100.594 22.0104 100.594 22.0938H100.719C102.219 20.5938 103.802 19.2604 105.469 18.0938L105.719 18.2188V17.8438C105.51 17.4271 105.344 17.2188 105.219 17.2188ZM88.0938 19.5938L88.7188 19.7188C90.4896 18.4688 91.5312 17.8438 91.8438 17.8438H92.0938V18.2188C91.7188 18.2188 90.7188 18.8438 89.0938 20.0938L89.4688 20.3438C91.1771 18.8438 92.1771 18.0938 92.4688 18.0938C92.4688 17.9896 92.2188 17.7812 91.7188 17.4688C89.3021 18.8021 88.0938 19.5104 88.0938 19.5938ZM99.4688 19.0938V19.2188L100.094 19.3438C101.094 18.5104 101.677 18.0938 101.844 18.0938V17.9688H101.719C100.323 18.7188 99.5729 19.0938 99.4688 19.0938ZM92.5938 18.0938C92.5938 18.4479 91.8021 19.1562 90.2188 20.2188C90.2188 20.2812 90.0104 20.4479 89.5938 20.7188C89.6771 20.8646 89.7188 21.0312 89.7188 21.2188C90.2812 20.7396 91.4479 19.8646 93.2188 18.5938C93.1771 18.5938 92.9688 18.4271 92.5938 18.0938ZM100.594 22.5938C100.677 22.9062 100.719 23.2396 100.719 23.5938L101.094 23.3438C101.26 23.4271 101.385 23.4688 101.469 23.4688C103.906 21.0521 105.281 19.8438 105.594 19.8438V19.4688L105.719 18.5938H105.594C104.323 19.4688 102.698 20.8021 100.719 22.5938H100.594ZM89.8438 21.5938V22.3438C91.9062 20.6354 93.2396 19.7188 93.8438 19.5938L93.9688 19.8438C92.2604 20.9479 90.8854 22.0312 89.8438 23.0938V23.5938H89.9688C91.1979 22.4479 92.5729 21.3229 94.0938 20.2188V19.4688C94.0938 19.3438 93.9271 19.1771 93.5938 18.9688L89.8438 21.5938ZM97.9688 20.2188H97.4688L97.3438 20.8438H98.0938C98.5312 20.8438 98.7812 21.8854 98.8438 23.9688C98.8438 24.0521 98.8021 24.0938 98.7188 24.0938L98.8438 24.9688V25.0938C98.8438 26.4271 98.9271 27.7604 99.0938 29.0938C99.0104 30.9479 98.9688 32.6979 98.9688 34.3438V34.4688C99.3021 34.1354 99.5938 33.9688 99.8438 33.9688C99.5312 24.8021 99.1979 20.2188 98.8438 20.2188C98.6771 20.2188 98.5938 20.1771 98.5938 20.0938L97.9688 20.2188ZM100.844 24.2188C100.844 24.1354 100.802 24.0938 100.719 24.0938V24.3438C100.719 24.6562 100.76 25.6979 100.844 27.4688C103.719 24.4896 105.26 22.6562 105.469 21.9688C105.469 22.0104 104.094 23.3854 101.344 26.0938H101.219C101.052 26.0938 100.969 26.0104 100.969 25.8438C103.969 22.9688 105.469 21.3438 105.469 20.9688L105.594 20.2188C102.865 22.8854 101.281 24.2188 100.844 24.2188ZM85.7188 20.3438V21.3438L85.9688 21.2188H86.2188C86.5312 21.2188 87.0729 21.3854 87.8438 21.7188L88.0938 21.3438C87.9271 20.8438 87.5938 20.5938 87.0938 20.5938H86.0938L85.7188 20.3438ZM89.8438 24.7188V24.8438H89.9688L94.0938 21.5938V20.8438C91.2604 22.8438 89.8438 24.1354 89.8438 24.7188ZM87.9688 21.9688V22.0938C88.0521 22.2604 88.0938 22.3854 88.0938 22.4688H88.2188V22.0938L87.9688 21.9688ZM89.8438 25.7188V26.3438L94.0938 23.2188V22.2188C91.7812 23.9271 90.3646 25.0938 89.8438 25.7188ZM88.0938 22.9688V29.8438C88.0938 30.7188 88.0521 31.6354 87.9688 32.5938L88.2188 36.8438H88.3438C88.3438 36.7188 88.3854 35.2188 88.4688 32.3438L88.3438 31.8438C88.4271 31.6979 88.4688 31.4896 88.4688 31.2188V30.9688C88.4688 30.7812 88.4271 30.6146 88.3438 30.4688C88.3438 30.3854 88.3854 30.3438 88.4688 30.3438L88.2188 22.9688H88.0938ZM100.844 28.2188V29.0938C102.427 26.8854 103.927 25.3021 105.344 24.3438L105.219 24.0938L105.344 23.2188L100.844 28.2188ZM89.8438 27.0938V27.8438C90.9688 26.8021 92.4271 25.6354 94.2188 24.3438V23.7188H94.0938C91.3854 25.7396 89.9688 26.8646 89.8438 27.0938ZM89.8438 28.5938V29.0938C91.1354 27.8854 92.5938 26.6771 94.2188 25.4688V24.9688C92.8646 25.7604 91.4062 26.9688 89.8438 28.5938ZM100.844 29.8438C100.927 29.9479 100.969 30.2396 100.969 30.7188C101.052 30.7188 102.51 29.1771 105.344 26.0938V25.7188L105.219 25.0938C105.302 25.0938 105.344 25.0521 105.344 24.9688H105.219C104.115 25.7812 102.656 27.4062 100.844 29.8438ZM89.8438 29.8438V30.3438H89.9688C92.3854 27.9271 93.8438 26.7188 94.3438 26.7188V26.0938H94.2188C93.0729 26.7812 91.6146 28.0312 89.8438 29.8438ZM101.094 31.3438V31.7188C102.802 29.9271 104.26 28.5104 105.469 27.4688V26.8438H105.344C105.219 26.8854 103.802 28.3854 101.094 31.3438ZM89.7188 31.9688C92.7812 29.2396 94.3229 27.8229 94.3438 27.7188V27.0938C93.4271 27.6771 92.0104 28.9271 90.0938 30.8438C89.9479 30.8438 89.8229 31.2188 89.7188 31.9688ZM101.094 32.8438V33.3438C101.094 33.5312 101.135 33.6979 101.219 33.8438C100.49 35.0521 99.3646 36.0521 97.8438 36.8438C97.7396 36.8438 97.3229 37.2604 96.5938 38.0938H96.7188C98.1354 37.3854 99.4688 36.4688 100.719 35.3438H100.969C101.219 35.3438 101.344 35.5104 101.344 35.8438C102.823 33.8854 104.24 32.3021 105.594 31.0938V30.3438H105.469C104.531 31.2604 103.156 32.8021 101.344 34.9688C101.177 34.9688 101.094 34.8854 101.094 34.7188V34.5938C102.781 32.5729 104.24 30.9062 105.469 29.5938V28.2188H105.344C102.51 30.7188 101.094 32.2604 101.094 32.8438ZM89.7188 33.4688H89.8438C90.3854 32.5104 91.8854 31.0521 94.3438 29.0938V28.4688C91.2604 31.0938 89.7188 32.5938 89.7188 32.9688V33.4688ZM89.5938 35.0938C91.3021 33.1979 92.8854 31.6562 94.3438 30.4688V29.7188C91.1771 32.2604 89.5938 34.0104 89.5938 34.9688V35.0938ZM89.5938 35.9688V36.0938C92.0521 33.0938 93.6771 31.5938 94.4688 31.5938V31.0938C92.8229 32.1562 91.1979 33.7812 89.5938 35.9688ZM101.344 37.0938H101.469C104.302 34.2812 105.719 32.7812 105.719 32.5938L105.594 31.7188C102.76 34.5521 101.344 36.3438 101.344 37.0938ZM89.5938 36.9688V37.0938C89.5938 37.2188 89.7188 37.3438 89.9688 37.4688C90.0938 37.4271 91.5521 36.0521 94.3438 33.3438H94.5938C94.5104 33.0312 94.4688 32.5729 94.4688 31.9688C92.7604 33.0104 91.1354 34.6771 89.5938 36.9688ZM101.594 37.4688L101.719 38.3438H101.969C101.969 37.9688 102.344 37.6354 103.094 37.3438C103.094 37.1771 104.01 36.1354 105.844 34.2188V33.4688H105.719C103.115 36.1354 101.74 37.4688 101.594 37.4688ZM90.2188 37.9688C90.4479 38.3854 90.6146 38.5938 90.7188 38.5938C90.7188 38.1771 92.0521 36.7188 94.7188 34.2188C94.6354 34.0729 94.5938 33.9062 94.5938 33.7188L90.2188 37.9688ZM90.9688 38.9688L91.2188 39.0938C93.3646 36.8438 94.5729 35.7188 94.8438 35.7188V34.9688H94.7188C92.7604 36.5729 91.5104 37.9062 90.9688 38.9688ZM102.094 38.9688C102.385 39.7188 102.802 40.0938 103.344 40.0938H103.469L103.344 39.8438V39.7188C104.948 37.9688 105.865 37.0938 106.094 37.0938L105.969 36.4688H105.844C104.802 37.3854 103.76 38.4688 102.719 39.7188C102.552 39.7188 102.469 39.6354 102.469 39.4688V39.3438C102.469 39.2604 103.635 38.0104 105.969 35.5938V34.9688H105.844C105.76 34.9688 104.51 36.3021 102.094 38.9688ZM91.5938 39.4688V39.5938C91.5938 39.7188 91.7188 39.8438 91.9688 39.9688C92.2604 39.4688 93.3438 38.3438 95.2188 36.5938C95.1354 36.4271 95.0938 36.3021 95.0938 36.2188H94.8438C93.4062 37.4062 92.3229 38.4896 91.5938 39.4688ZM95.5938 36.8438C93.9479 38.3646 92.8646 39.4896 92.3438 40.2188H92.4688C93.2188 40.0521 94.2188 39.2188 95.4688 37.7188C95.5938 37.7188 95.8438 37.4688 96.2188 36.9688L95.5938 36.8438ZM96.5938 37.2188L95.0938 38.8438H95.2188C95.6979 38.4896 96.1979 37.9479 96.7188 37.2188H96.5938ZM106.344 37.3438C104.51 39.0729 103.594 39.9896 103.594 40.0938H103.844C104.573 40.0938 105.656 39.2604 107.094 37.5938L106.344 37.3438ZM100.219 38.0938C100.219 38.3646 100.635 39.1146 101.469 40.3438C101.469 40.9271 101.927 41.2604 102.844 41.3438H103.219L103.844 41.2188V41.0938C102.302 41.0938 101.26 40.1354 100.719 38.2188C100.719 37.9688 100.635 37.8438 100.469 37.8438C100.302 37.8646 100.219 37.9479 100.219 38.0938ZM92.4688 41.7188H92.5938C92.7812 41.7188 94.2812 40.9688 97.0938 39.4688V39.3438H96.9688L92.4688 41.7188ZM90.3438 40.2188V40.3438C90.3438 40.4479 90.8021 40.9062 91.7188 41.7188L91.8438 41.4688L90.3438 40.2188ZM124.562 3.6875H125.062C125.896 4.77083 126.646 5.3125 127.312 5.3125C127.312 5.64583 127.896 5.8125 129.062 5.8125C129.396 5.8125 130.104 5.60417 131.188 5.1875C131.521 5.3125 131.688 5.4375 131.688 5.5625V6.0625C131.25 6.0625 131 7.35417 130.938 9.9375C130.042 11.6875 129 12.5625 127.812 12.5625C127.812 12.7292 127.521 12.8125 126.938 12.8125H126.688C125.479 12.8125 124.354 12.4375 123.312 11.6875H123.062L122.938 12.5625V13.6875H125.562L127.062 13.5625L127.312 13.9375V14.4375L126.062 16.1875C126.146 16.3542 126.188 16.4792 126.188 16.5625C125.917 17.8958 125.625 18.5625 125.312 18.5625C124.396 18.4792 123.604 18.4375 122.938 18.4375H122.688C122.771 23.3542 122.812 26.4792 122.812 27.8125C122.812 30.5625 123.354 31.9375 124.438 31.9375H125.312C125.521 31.9375 125.688 32.2708 125.812 32.9375C125.729 33.6458 125.688 34.2292 125.688 34.6875V35.3125C123.167 38.1667 120.708 40.5417 118.312 42.4375C117.229 43.5417 116.396 44.4583 115.812 45.1875H115.562C115.458 45.1875 115.208 44.5208 114.812 43.1875L115.062 36.3125C115.062 36.2292 115.021 36.1042 114.938 35.9375C115.021 35.4792 115.062 35.1042 115.062 34.8125V33.8125C115.062 33.625 115.021 33.4583 114.938 33.3125C115.021 33.1667 115.062 33 115.062 32.8125V32.0625C115.062 31.7917 115.021 31.5833 114.938 31.4375C114.938 31.3542 114.979 31.2292 115.062 31.0625C114.979 29.5833 114.938 28.375 114.938 27.4375V25.1875L114.688 24.8125L114.938 24.3125C114.771 23.1875 114.688 21.9792 114.688 20.6875L114.812 18.9375C114.729 18.9375 114.688 18.8958 114.688 18.8125L114.438 18.9375H113.938C113.479 18.9375 112.854 19.0625 112.062 19.3125H111.938L111.562 19.0625C111.562 17.3542 112.271 15.6875 113.688 14.0625H115.062C115.188 14.0625 115.479 12.7708 115.938 10.1875C115.938 9.85417 116.271 9.64583 116.938 9.5625C118.812 8.54167 121.354 6.58333 124.562 3.6875ZM116.438 14.1875C116.521 14.3333 116.562 14.5 116.562 14.6875L116.438 15.1875L122.062 10.8125C122.062 10.6667 122.146 10.4167 122.312 10.0625H122.188C121.375 10.7917 119.917 11.8333 117.812 13.1875H117.562C117.396 13.1875 117.312 13.1042 117.312 12.9375V12.8125L121.688 9.6875L121.562 9.4375V9.0625C122.5 7.97917 123.792 6.89583 125.438 5.8125C125.271 5.72917 125.146 5.6875 125.062 5.6875C124.104 6.25 121.396 8.41667 116.938 12.1875C116.792 12.1875 116.625 12.8542 116.438 14.1875ZM125.938 6.3125C124.521 7.3125 123.812 7.85417 123.812 7.9375C124.062 7.9375 124.188 8.02083 124.188 8.1875C123.688 8.72917 123.438 9.02083 123.438 9.0625V9.1875L126.562 6.5625C126.292 6.39583 126.083 6.3125 125.938 6.3125ZM123.938 9.8125H124.188C124.646 9.77083 126.021 8.8125 128.312 6.9375H127.688C127.042 6.95833 125.792 7.91667 123.938 9.8125ZM124.688 10.3125C124.688 10.5625 125.188 10.7292 126.188 10.8125C127.646 10.2708 128.729 9.35417 129.438 8.0625C129.688 7.52083 129.812 7.14583 129.812 6.9375C129.562 6.9375 128.646 7.5625 127.062 8.8125C125.625 9.8125 124.833 10.3125 124.688 10.3125ZM130.188 9.0625C129.604 10.2708 128.438 11.2292 126.688 11.9375H126.438V12.0625H127.188C129.271 11.5833 130.312 10.625 130.312 9.1875V9.0625H130.188ZM117.062 10.8125V11.1875C117.979 10.5208 118.438 10.1458 118.438 10.0625C117.667 10.5625 117.208 10.8125 117.062 10.8125ZM116.062 18.4375L121.688 13.8125V12.0625C119.854 13.3125 118.104 14.6458 116.438 16.0625C116.271 16.0625 116.146 16.8542 116.062 18.4375ZM115.938 19.6875C118.146 18.1458 119.854 16.8958 121.062 15.9375H121.188C121.354 15.9583 121.438 16.0417 121.438 16.1875V16.4375C121.021 16.8542 119.188 18.2292 115.938 20.5625V20.9375C118.021 19.1875 119.771 17.9792 121.188 17.3125C121.208 17.4792 121.292 17.5625 121.438 17.5625C121.438 16.7292 121.729 16.3125 122.312 16.3125H124.062L124.688 16.4375C124.688 16.2292 124.938 15.7292 125.438 14.9375H124.562C123.896 14.9375 123.104 14.9792 122.188 15.0625L121.688 14.8125C121.542 14.8125 119.875 16.1458 116.688 18.8125C116.188 19.0625 115.938 19.3542 115.938 19.6875ZM113.562 16.4375V16.5625C113.646 16.4792 114.146 16.3958 115.062 16.3125V15.5625L115.188 15.3125H114.312C114.208 15.3125 113.958 15.6875 113.562 16.4375ZM124.438 17.5625H122.688C122.708 17.7292 122.792 17.8125 122.938 17.8125H124.438L125.062 17.9375V17.6875C124.812 17.6875 124.688 17.6042 124.688 17.4375L124.438 17.5625ZM112.312 18.1875V18.4375C114.062 18.4375 114.938 18.1458 114.938 17.5625H114.812C113.146 17.7917 112.312 18 112.312 18.1875ZM115.938 22.0625C116.021 22.6458 116.062 23.1458 116.062 23.5625C119.208 20.7292 121 19.3125 121.438 19.3125V17.8125C118.917 19.3125 117.083 20.7292 115.938 22.0625ZM116.188 24.4375V25.3125C119.062 22.7292 120.729 21.4375 121.188 21.4375C121.208 21.6042 121.292 21.6875 121.438 21.6875V19.9375C119.979 20.9792 118.229 22.4792 116.188 24.4375ZM116.188 26.4375V28.0625C117.771 26.5625 119.562 25.0208 121.562 23.4375C121.479 23.0208 121.438 22.4792 121.438 21.8125C120.021 22.7708 118.271 24.3125 116.188 26.4375ZM116.188 29.0625V29.6875H116.312C119.229 26.875 120.979 25.375 121.562 25.1875V24.3125C119.667 25.7708 117.875 27.3542 116.188 29.0625ZM116.312 30.8125V31.8125C119.25 28.7917 121 27.25 121.562 27.1875V25.9375C119.958 27.0625 118.208 28.6875 116.312 30.8125ZM116.312 32.8125V34.3125C119.792 30.8958 121.583 29.1875 121.688 29.1875L121.562 28.5625V27.9375H121.438C120.375 28.7292 118.667 30.3542 116.312 32.8125ZM116.312 35.3125V36.6875C118.042 34.7292 119.792 32.9792 121.562 31.4375H121.812C121.979 31.4583 122.062 31.5417 122.062 31.6875V31.8125C118.562 35.2083 116.812 37 116.812 37.1875V37.3125C118.896 35.125 120.562 33.5 121.812 32.4375H122.062C122.229 32.4583 122.312 32.5417 122.312 32.6875V32.8125C119.667 35.2917 117.625 37.3333 116.188 38.9375V39.6875L121.062 34.6875C121.188 34.6875 121.312 34.8125 121.438 35.0625V35.1875C119.417 37.25 118.25 38.5 117.938 38.9375H118.062C118.062 38.7708 119.938 36.9375 123.688 33.4375L123.812 33.1875V33.0625C122.854 33.0625 122.188 32.1042 121.812 30.1875V30.0625H121.688C118.104 33.4792 116.312 35.2292 116.312 35.3125ZM115.688 43.4375L115.812 44.0625C116.688 43.0833 118.812 41.0833 122.188 38.0625L125.062 35.0625V33.6875C124.667 34.2292 122.375 36.4375 118.188 40.3125C117.354 41.1458 116.521 42.1875 115.688 43.4375ZM139.938 14.2812H140.438C142.104 15.8854 143.271 17.6771 143.938 19.6562C143.958 20.1354 144.083 20.5938 144.312 21.0312C144.646 21.0312 144.812 21.1146 144.812 21.2812C144.812 21.4062 144.688 21.5312 144.438 21.6562L145.312 24.0312C144.625 24.7604 142.458 26.3854 138.812 28.9062C137.896 29.8854 137.438 30.5521 137.438 30.9062V31.1562C138.167 34.0729 139.5 35.5312 141.438 35.5312H142.062C142.146 35.5312 142.479 35.4479 143.062 35.2812H143.188L143.688 35.6562C143.542 37.9896 143.208 39.1562 142.688 39.1562C141.104 39.9896 139.396 41.1562 137.562 42.6562C137.354 43.0729 137.021 43.2812 136.562 43.2812H136.312C136.146 43.2812 136.062 43.1979 136.062 43.0312V42.7812L136.188 42.5312C135.021 41.8438 132.938 40.0938 129.938 37.2812C129.812 37.2812 129.646 37.1979 129.438 37.0312C129.604 35.9271 129.688 34.3438 129.688 32.2812V31.9062C129.521 28.0729 129.438 25.9479 129.438 25.5312V23.4062C129.438 21.9896 131.396 20.0729 135.312 17.6562C136.333 16.5521 137.875 15.4271 139.938 14.2812ZM131.312 23.1562C134.521 20.5312 136.979 18.4062 138.688 16.7812C139.542 16.1979 140.042 15.9062 140.188 15.9062V15.7812H139.938C137.354 17.1979 136.062 18.2812 136.062 19.0312C133.229 21.1146 131.646 22.4479 131.312 23.0312V23.1562ZM137.438 18.7812H137.562L140.688 16.4062V16.2812H140.562C139.771 16.7396 138.729 17.5729 137.438 18.7812ZM141.062 16.9062C139.146 18.3438 138.188 19.0938 138.188 19.1562V19.2812C138.354 19.2812 138.729 19.5729 139.312 20.1562C139.312 19.8021 140.188 19.2188 141.938 18.4062V18.2812L141.812 18.0312C140.458 18.8646 139.625 19.2812 139.312 19.2812C139.146 19.2812 139.062 19.1979 139.062 19.0312C139.167 18.8229 139.958 18.3229 141.438 17.5312V17.2812C141.438 17.1562 141.312 17.0312 141.062 16.9062ZM139.438 20.2812V20.4062C139.438 20.5312 139.562 20.6562 139.812 20.7812H139.938C141.604 20.1562 142.438 19.6562 142.438 19.2812C142.354 19.1146 142.312 18.9896 142.312 18.9062H142.188C140.792 19.8229 139.875 20.2812 139.438 20.2812ZM131.438 24.0312V24.5312L131.562 25.1562C132.438 24.0938 134.104 22.4688 136.562 20.2812L136.688 19.6562H136.562C134.521 21.1562 132.812 22.6146 131.438 24.0312ZM140.188 21.4062C140.688 22.3438 140.938 22.8854 140.938 23.0312C142.438 22.1354 143.188 21.6354 143.188 21.5312H143.062C142.312 22.0312 141.646 22.2812 141.062 22.2812L140.688 21.7812C140.708 21.6146 140.792 21.5312 140.938 21.5312H141.188C141.271 21.5312 141.312 21.5729 141.312 21.6562C141.396 21.6562 141.938 21.4062 142.938 20.9062C142.833 20.4062 142.708 20.1562 142.562 20.1562C141.208 20.9896 140.417 21.4062 140.188 21.4062ZM137.812 20.5312L137.688 20.7812V24.6562C137.688 25.8646 137.604 27.1146 137.438 28.4062V28.5312H137.562C137.562 28.3646 138.438 27.3646 140.188 25.5312C140.188 23.6979 139.396 22.0312 137.812 20.5312ZM132.188 25.4062V25.5312C134.417 24.0729 135.833 22.9896 136.438 22.2812V21.4062H136.312C134.667 22.7188 133.292 24.0521 132.188 25.4062ZM141.188 23.4062C141.188 23.3229 141.146 23.2812 141.062 23.2812V23.4062C141.312 24.5312 141.438 25.2396 141.438 25.5312C143.021 24.4479 143.812 23.7812 143.812 23.5312C143.562 23.0729 143.438 22.6979 143.438 22.4062C142 23.0729 141.25 23.4062 141.188 23.4062ZM131.688 26.6562V27.2812H131.812C134.375 25.3646 135.875 24.4062 136.312 24.4062C136.312 24.4896 136.354 24.5312 136.438 24.5312V23.2812C133.625 25.3438 132.042 26.4688 131.688 26.6562ZM130.062 24.0312V25.4062C130.062 25.8646 130.146 27.9896 130.312 31.7812H130.438V29.0312C130.438 28.9479 130.396 28.8229 130.312 28.6562C130.396 28.5104 130.438 28.3438 130.438 28.1562V27.7812C130.438 27.0938 130.354 25.8438 130.188 24.0312H130.062ZM131.688 28.2812V29.2812C133.729 27.5312 134.938 26.6562 135.312 26.6562L135.438 26.9062V27.0312C133.479 28.5521 132.229 29.6354 131.688 30.2812V30.5312H131.812C134.312 28.3646 135.729 27.2812 136.062 27.2812C136.083 27.4479 136.167 27.5312 136.312 27.5312C136.396 26.2812 136.438 25.4062 136.438 24.9062C134.188 26.2396 132.604 27.3646 131.688 28.2812ZM131.562 32.1562C134.062 30.1562 135.562 29.1562 136.062 29.1562H136.188V27.9062C133.104 30.0312 131.562 31.4062 131.562 32.0312V32.1562ZM131.562 33.1562V33.9062H131.688C133.458 32.3021 134.833 31.3021 135.812 30.9062C135.979 30.9896 136.104 31.0312 136.188 31.0312V29.6562H136.062C134.542 30.5729 133.042 31.7396 131.562 33.1562ZM131.688 34.9062V35.0312C131.708 35.1979 131.792 35.2812 131.938 35.2812C133.229 33.9896 134.688 32.8646 136.312 31.9062C136.229 31.7604 136.188 31.5521 136.188 31.2812C134.479 32.2812 132.979 33.4896 131.688 34.9062ZM132.438 35.7812C132.438 35.9062 132.562 36.0312 132.812 36.1562C134.979 34.3229 136.271 33.4062 136.688 33.4062L136.812 33.6562V33.9062C135.75 34.5312 134.583 35.4479 133.312 36.6562L133.688 37.1562C134.5 36.6562 135.583 35.8229 136.938 34.6562H137.062C137.229 34.6771 137.312 34.7604 137.312 34.9062V35.0312L134.312 37.6562L134.688 37.9062H134.812C136.708 36.0729 137.75 35.1562 137.938 35.1562V35.0312C137.104 34.0312 136.646 33.2396 136.562 32.6562C135.771 32.7396 134.396 33.7812 132.438 35.7812ZM130.312 34.0312C130.312 34.3229 130.271 34.6979 130.188 35.1562V35.2812H130.312L130.438 34.6562V34.0312H130.312ZM135.312 38.4062V38.5312C136.958 37.1979 138.125 36.3646 138.812 36.0312L138.438 35.5312C138.083 35.5938 137.042 36.5521 135.312 38.4062ZM130.562 35.9062L130.438 36.7812C133.938 40.1979 135.979 41.9062 136.562 41.9062V41.7812L136.812 40.9062C136.229 40.9062 134.188 39.2396 130.688 35.9062H130.562ZM135.938 38.7812V39.0312H136.062C136.312 39.0312 137.562 38.2396 139.812 36.6562H139.938V36.5312C139.854 36.5312 139.729 36.4896 139.562 36.4062C139.188 36.4062 137.979 37.1979 135.938 38.7812ZM140.438 36.6562C140.438 36.9896 139.646 37.6146 138.062 38.5312C137.458 39.1146 137.042 39.4062 136.812 39.4062V39.6562L137.312 39.7812C137.396 39.5729 138.604 38.5729 140.938 36.7812C140.75 36.7812 140.583 36.7396 140.438 36.6562ZM137.062 42.2812C139.167 40.5104 141.042 39.2604 142.688 38.5312L142.938 36.7812C139.312 39.5312 137.396 41.1979 137.188 41.7812L137.062 42.2812Z" fill="white"/>
</svg>
