<svg width="337" height="159" viewBox="0 0 337 159" fill="none" xmlns="http://www.w3.org/2000/svg">
<mask id="path-1-outside-1_251_16" maskUnits="userSpaceOnUse" x="-0.666626" y="23" width="336" height="114" fill="black">
<rect fill="white" x="-0.666626" y="23" width="336" height="114"/>
<path d="M3.00004 61.8533V44.68V26.9733H20.8134L28.1734 35.6133L35.64 26.9733H53.3467V133.64H35.64V54.28L28.1734 62.92L20.8134 54.28V133.64H3.00004V61.8533ZM91.1584 88.52L76.3317 97.0533V133.64H58.625V26.9733H108.972V133.64H91.1584V88.52ZM91.1584 68.04V44.68H76.3317V76.4667L91.1584 68.04ZM114.25 48.84V44.68V26.9733H146.89H164.597V44.68V58.3333V78.8133L146.89 89.0533L132.063 97.5867V115.933H146.89V110.173V108.68L164.597 98.44V110.173V115.933V133.64H132.063H114.25V115.933V107.827V87.3467L132.063 77.1067L146.89 68.5733V44.68H132.063V48.84V50.3333L114.25 60.5733V48.84ZM169.875 48.84V44.68V26.9733H202.515H220.222V44.68V58.3333V78.8133L202.515 89.0533L187.688 97.5867V115.933H202.515V110.173V108.68L220.222 98.44V110.173V115.933V133.64H187.688H169.875V115.933V107.827V87.3467L187.688 77.1067L202.515 68.5733V44.68H187.688V48.84V50.3333L169.875 60.5733V48.84ZM258.033 88.52L243.207 97.0533V133.64H225.5V26.9733H275.847V133.64H258.033V88.52ZM258.033 68.04V44.68H243.207V76.4667L258.033 68.04ZM281.125 61.8533V44.68V26.9733H298.938L306.298 35.6133L313.765 26.9733H331.472V133.64H313.765V54.28L306.298 62.92L298.938 54.28V133.64H281.125V61.8533Z"/>
</mask>
<path d="M3.00004 61.8533V44.68V26.9733H20.8134L28.1734 35.6133L35.64 26.9733H53.3467V133.64H35.64V54.28L28.1734 62.92L20.8134 54.28V133.64H3.00004V61.8533ZM91.1584 88.52L76.3317 97.0533V133.64H58.625V26.9733H108.972V133.64H91.1584V88.52ZM91.1584 68.04V44.68H76.3317V76.4667L91.1584 68.04ZM114.25 48.84V44.68V26.9733H146.89H164.597V44.68V58.3333V78.8133L146.89 89.0533L132.063 97.5867V115.933H146.89V110.173V108.68L164.597 98.44V110.173V115.933V133.64H132.063H114.25V115.933V107.827V87.3467L132.063 77.1067L146.89 68.5733V44.68H132.063V48.84V50.3333L114.25 60.5733V48.84ZM169.875 48.84V44.68V26.9733H202.515H220.222V44.68V58.3333V78.8133L202.515 89.0533L187.688 97.5867V115.933H202.515V110.173V108.68L220.222 98.44V110.173V115.933V133.64H187.688H169.875V115.933V107.827V87.3467L187.688 77.1067L202.515 68.5733V44.68H187.688V48.84V50.3333L169.875 60.5733V48.84ZM258.033 88.52L243.207 97.0533V133.64H225.5V26.9733H275.847V133.64H258.033V88.52ZM258.033 68.04V44.68H243.207V76.4667L258.033 68.04ZM281.125 61.8533V44.68V26.9733H298.938L306.298 35.6133L313.765 26.9733H331.472V133.64H313.765V54.28L306.298 62.92L298.938 54.28V133.64H281.125V61.8533Z" fill="#FF3400"/>
<path d="M3.00004 26.9733V23.9733H4.07696e-05V26.9733H3.00004ZM20.8134 26.9733L23.0971 25.0279L22.1987 23.9733H20.8134V26.9733ZM28.1734 35.6133L25.8896 37.5587L28.157 40.2204L30.4432 37.5749L28.1734 35.6133ZM35.64 26.9733V23.9733H34.2676L33.3702 25.0117L35.64 26.9733ZM53.3467 26.9733H56.3467V23.9733H53.3467V26.9733ZM53.3467 133.64V136.64H56.3467V133.64H53.3467ZM35.64 133.64H32.64V136.64H35.64V133.64ZM35.64 54.28H38.64V46.2205L33.3702 52.3184L35.64 54.28ZM28.1734 62.92L25.8896 64.8654L28.157 67.5271L30.4432 64.8816L28.1734 62.92ZM20.8134 54.28L23.0971 52.3346L17.8134 46.132V54.28H20.8134ZM20.8134 133.64V136.64H23.8134V133.64H20.8134ZM3.00004 133.64H4.07696e-05V136.64H3.00004V133.64ZM3.00004 61.8533H6.00004V44.68H3.00004H4.07696e-05V61.8533H3.00004ZM3.00004 44.68H6.00004V26.9733H3.00004H4.07696e-05V44.68H3.00004ZM3.00004 26.9733V29.9733H20.8134V26.9733V23.9733H3.00004V26.9733ZM20.8134 26.9733L18.5296 28.9187L25.8896 37.5587L28.1734 35.6133L30.4571 33.6679L23.0971 25.0279L20.8134 26.9733ZM28.1734 35.6133L30.4432 37.5749L37.9099 28.9349L35.64 26.9733L33.3702 25.0117L25.9035 33.6517L28.1734 35.6133ZM35.64 26.9733V29.9733H53.3467V26.9733V23.9733H35.64V26.9733ZM53.3467 26.9733H50.3467V133.64H53.3467H56.3467V26.9733H53.3467ZM53.3467 133.64V130.64H35.64V133.64V136.64H53.3467V133.64ZM35.64 133.64H38.64V54.28H35.64H32.64V133.64H35.64ZM35.64 54.28L33.3702 52.3184L25.9035 60.9584L28.1734 62.92L30.4432 64.8816L37.9099 56.2416L35.64 54.28ZM28.1734 62.92L30.4571 60.9746L23.0971 52.3346L20.8134 54.28L18.5296 56.2254L25.8896 64.8654L28.1734 62.92ZM20.8134 54.28H17.8134V133.64H20.8134H23.8134V54.28H20.8134ZM20.8134 133.64V130.64H3.00004V133.64V136.64H20.8134V133.64ZM3.00004 133.64H6.00004V61.8533H3.00004H4.07696e-05V133.64H3.00004ZM91.1584 88.52H94.1584V83.332L89.6619 85.9199L91.1584 88.52ZM76.3317 97.0533L74.8352 94.4532L73.3317 95.3186V97.0533H76.3317ZM76.3317 133.64V136.64H79.3317V133.64H76.3317ZM58.625 133.64H55.625V136.64H58.625V133.64ZM58.625 26.9733V23.9733H55.625V26.9733H58.625ZM108.972 26.9733H111.972V23.9733H108.972V26.9733ZM108.972 133.64V136.64H111.972V133.64H108.972ZM91.1584 133.64H88.1584V136.64H91.1584V133.64ZM91.1584 68.04L92.6407 70.6482L94.1584 69.7856V68.04H91.1584ZM91.1584 44.68H94.1584V41.68H91.1584V44.68ZM76.3317 44.68V41.68H73.3317V44.68H76.3317ZM76.3317 76.4667H73.3317V81.6224L77.8141 79.0749L76.3317 76.4667ZM91.1584 88.52L89.6619 85.9199L74.8352 94.4532L76.3317 97.0533L77.8282 99.6534L92.6548 91.1201L91.1584 88.52ZM76.3317 97.0533H73.3317V133.64H76.3317H79.3317V97.0533H76.3317ZM76.3317 133.64V130.64H58.625V133.64V136.64H76.3317V133.64ZM58.625 133.64H61.625V26.9733H58.625H55.625V133.64H58.625ZM58.625 26.9733V29.9733H108.972V26.9733V23.9733H58.625V26.9733ZM108.972 26.9733H105.972V133.64H108.972H111.972V26.9733H108.972ZM108.972 133.64V130.64H91.1584V133.64V136.64H108.972V133.64ZM91.1584 133.64H94.1584V88.52H91.1584H88.1584V133.64H91.1584ZM91.1584 68.04H94.1584V44.68H91.1584H88.1584V68.04H91.1584ZM91.1584 44.68V41.68H76.3317V44.68V47.68H91.1584V44.68ZM76.3317 44.68H73.3317V76.4667H76.3317H79.3317V44.68H76.3317ZM76.3317 76.4667L77.8141 79.0749L92.6407 70.6482L91.1584 68.04L89.676 65.4318L74.8494 73.8585L76.3317 76.4667ZM114.25 26.9733V23.9733H111.25V26.9733H114.25ZM164.597 26.9733H167.597V23.9733H164.597V26.9733ZM164.597 78.8133L166.099 81.4103L167.597 80.5439V78.8133H164.597ZM146.89 89.0533L148.387 91.6535L148.392 91.6503L146.89 89.0533ZM132.063 97.5867L130.567 94.9866L129.063 95.8519V97.5867H132.063ZM132.063 115.933H129.063V118.933H132.063V115.933ZM146.89 115.933V118.933H149.89V115.933H146.89ZM146.89 108.68L145.388 106.083L143.89 106.949V108.68H146.89ZM164.597 98.44H167.597V93.2395L163.095 95.843L164.597 98.44ZM164.597 133.64V136.64H167.597V133.64H164.597ZM114.25 133.64H111.25V136.64H114.25V133.64ZM114.25 87.3467L112.755 84.7458L111.25 85.6109V87.3467H114.25ZM132.063 77.1067L133.559 79.7076L133.56 79.7068L132.063 77.1067ZM146.89 68.5733L148.387 71.1734L149.89 70.3081V68.5733H146.89ZM146.89 44.68H149.89V41.68H146.89V44.68ZM132.063 44.68V41.68H129.063V44.68H132.063ZM132.063 50.3333L133.559 52.9342L135.063 52.0691V50.3333H132.063ZM114.25 60.5733H111.25V65.7582L115.745 63.1742L114.25 60.5733ZM114.25 48.84H117.25V44.68H114.25H111.25V48.84H114.25ZM114.25 44.68H117.25V26.9733H114.25H111.25V44.68H114.25ZM114.25 26.9733V29.9733H146.89V26.9733V23.9733H114.25V26.9733ZM146.89 26.9733V29.9733H164.597V26.9733V23.9733H146.89V26.9733ZM164.597 26.9733H161.597V44.68H164.597H167.597V26.9733H164.597ZM164.597 44.68H161.597V58.3333H164.597H167.597V44.68H164.597ZM164.597 58.3333H161.597V78.8133H164.597H167.597V58.3333H164.597ZM164.597 78.8133L163.095 76.2163L145.388 86.4563L146.89 89.0533L148.392 91.6503L166.099 81.4103L164.597 78.8133ZM146.89 89.0533L145.394 86.4532L130.567 94.9866L132.063 97.5867L133.56 100.187L148.387 91.6534L146.89 89.0533ZM132.063 97.5867H129.063V115.933H132.063H135.063V97.5867H132.063ZM132.063 115.933V118.933H146.89V115.933V112.933H132.063V115.933ZM146.89 115.933H149.89V110.173H146.89H143.89V115.933H146.89ZM146.89 110.173H149.89V108.68H146.89H143.89V110.173H146.89ZM146.89 108.68L148.392 111.277L166.099 101.037L164.597 98.44L163.095 95.843L145.388 106.083L146.89 108.68ZM164.597 98.44H161.597V110.173H164.597H167.597V98.44H164.597ZM164.597 110.173H161.597V115.933H164.597H167.597V110.173H164.597ZM164.597 115.933H161.597V133.64H164.597H167.597V115.933H164.597ZM164.597 133.64V130.64H132.063V133.64V136.64H164.597V133.64ZM132.063 133.64V130.64H114.25V133.64V136.64H132.063V133.64ZM114.25 133.64H117.25V115.933H114.25H111.25V133.64H114.25ZM114.25 115.933H117.25V107.827H114.25H111.25V115.933H114.25ZM114.25 107.827H117.25V87.3467H114.25H111.25V107.827H114.25ZM114.25 87.3467L115.745 89.9476L133.559 79.7076L132.063 77.1067L130.568 74.5058L112.755 84.7458L114.25 87.3467ZM132.063 77.1067L133.56 79.7068L148.387 71.1734L146.89 68.5733L145.394 65.9732L130.567 74.5066L132.063 77.1067ZM146.89 68.5733H149.89V44.68H146.89H143.89V68.5733H146.89ZM146.89 44.68V41.68H132.063V44.68V47.68H146.89V44.68ZM132.063 44.68H129.063V48.84H132.063H135.063V44.68H132.063ZM132.063 48.84H129.063V50.3333H132.063H135.063V48.84H132.063ZM132.063 50.3333L130.568 47.7324L112.755 57.9725L114.25 60.5733L115.745 63.1742L133.559 52.9342L132.063 50.3333ZM114.25 60.5733H117.25V48.84H114.25H111.25V60.5733H114.25ZM169.875 26.9733V23.9733H166.875V26.9733H169.875ZM220.222 26.9733H223.222V23.9733H220.222V26.9733ZM220.222 78.8133L221.724 81.4103L223.222 80.5439V78.8133H220.222ZM202.515 89.0533L204.012 91.6535L204.017 91.6503L202.515 89.0533ZM187.688 97.5867L186.192 94.9866L184.688 95.8519V97.5867H187.688ZM187.688 115.933H184.688V118.933H187.688V115.933ZM202.515 115.933V118.933H205.515V115.933H202.515ZM202.515 108.68L201.013 106.083L199.515 106.949V108.68H202.515ZM220.222 98.44H223.222V93.2395L218.72 95.843L220.222 98.44ZM220.222 133.64V136.64H223.222V133.64H220.222ZM169.875 133.64H166.875V136.64H169.875V133.64ZM169.875 87.3467L168.38 84.7458L166.875 85.6109V87.3467H169.875ZM187.688 77.1067L189.184 79.7076L189.185 79.7068L187.688 77.1067ZM202.515 68.5733L204.012 71.1734L205.515 70.3081V68.5733H202.515ZM202.515 44.68H205.515V41.68H202.515V44.68ZM187.688 44.68V41.68H184.688V44.68H187.688ZM187.688 50.3333L189.184 52.9342L190.688 52.0691V50.3333H187.688ZM169.875 60.5733H166.875V65.7582L171.37 63.1742L169.875 60.5733ZM169.875 48.84H172.875V44.68H169.875H166.875V48.84H169.875ZM169.875 44.68H172.875V26.9733H169.875H166.875V44.68H169.875ZM169.875 26.9733V29.9733H202.515V26.9733V23.9733H169.875V26.9733ZM202.515 26.9733V29.9733H220.222V26.9733V23.9733H202.515V26.9733ZM220.222 26.9733H217.222V44.68H220.222H223.222V26.9733H220.222ZM220.222 44.68H217.222V58.3333H220.222H223.222V44.68H220.222ZM220.222 58.3333H217.222V78.8133H220.222H223.222V58.3333H220.222ZM220.222 78.8133L218.72 76.2163L201.013 86.4563L202.515 89.0533L204.017 91.6503L221.724 81.4103L220.222 78.8133ZM202.515 89.0533L201.019 86.4532L186.192 94.9866L187.688 97.5867L189.185 100.187L204.012 91.6534L202.515 89.0533ZM187.688 97.5867H184.688V115.933H187.688H190.688V97.5867H187.688ZM187.688 115.933V118.933H202.515V115.933V112.933H187.688V115.933ZM202.515 115.933H205.515V110.173H202.515H199.515V115.933H202.515ZM202.515 110.173H205.515V108.68H202.515H199.515V110.173H202.515ZM202.515 108.68L204.017 111.277L221.724 101.037L220.222 98.44L218.72 95.843L201.013 106.083L202.515 108.68ZM220.222 98.44H217.222V110.173H220.222H223.222V98.44H220.222ZM220.222 110.173H217.222V115.933H220.222H223.222V110.173H220.222ZM220.222 115.933H217.222V133.64H220.222H223.222V115.933H220.222ZM220.222 133.64V130.64H187.688V133.64V136.64H220.222V133.64ZM187.688 133.64V130.64H169.875V133.64V136.64H187.688V133.64ZM169.875 133.64H172.875V115.933H169.875H166.875V133.64H169.875ZM169.875 115.933H172.875V107.827H169.875H166.875V115.933H169.875ZM169.875 107.827H172.875V87.3467H169.875H166.875V107.827H169.875ZM169.875 87.3467L171.37 89.9476L189.184 79.7076L187.688 77.1067L186.193 74.5058L168.38 84.7458L169.875 87.3467ZM187.688 77.1067L189.185 79.7068L204.012 71.1734L202.515 68.5733L201.019 65.9732L186.192 74.5066L187.688 77.1067ZM202.515 68.5733H205.515V44.68H202.515H199.515V68.5733H202.515ZM202.515 44.68V41.68H187.688V44.68V47.68H202.515V44.68ZM187.688 44.68H184.688V48.84H187.688H190.688V44.68H187.688ZM187.688 48.84H184.688V50.3333H187.688H190.688V48.84H187.688ZM187.688 50.3333L186.193 47.7324L168.38 57.9725L169.875 60.5733L171.37 63.1742L189.184 52.9342L187.688 50.3333ZM169.875 60.5733H172.875V48.84H169.875H166.875V60.5733H169.875ZM258.033 88.52H261.033V83.332L256.537 85.9199L258.033 88.52ZM243.207 97.0533L241.71 94.4532L240.207 95.3186V97.0533H243.207ZM243.207 133.64V136.64H246.207V133.64H243.207ZM225.5 133.64H222.5V136.64H225.5V133.64ZM225.5 26.9733V23.9733H222.5V26.9733H225.5ZM275.847 26.9733H278.847V23.9733H275.847V26.9733ZM275.847 133.64V136.64H278.847V133.64H275.847ZM258.033 133.64H255.033V136.64H258.033V133.64ZM258.033 68.04L259.516 70.6482L261.033 69.7856V68.04H258.033ZM258.033 44.68H261.033V41.68H258.033V44.68ZM243.207 44.68V41.68H240.207V44.68H243.207ZM243.207 76.4667H240.207V81.6224L244.689 79.0749L243.207 76.4667ZM258.033 88.52L256.537 85.9199L241.71 94.4532L243.207 97.0533L244.703 99.6534L259.53 91.1201L258.033 88.52ZM243.207 97.0533H240.207V133.64H243.207H246.207V97.0533H243.207ZM243.207 133.64V130.64H225.5V133.64V136.64H243.207V133.64ZM225.5 133.64H228.5V26.9733H225.5H222.5V133.64H225.5ZM225.5 26.9733V29.9733H275.847V26.9733V23.9733H225.5V26.9733ZM275.847 26.9733H272.847V133.64H275.847H278.847V26.9733H275.847ZM275.847 133.64V130.64H258.033V133.64V136.64H275.847V133.64ZM258.033 133.64H261.033V88.52H258.033H255.033V133.64H258.033ZM258.033 68.04H261.033V44.68H258.033H255.033V68.04H258.033ZM258.033 44.68V41.68H243.207V44.68V47.68H258.033V44.68ZM243.207 44.68H240.207V76.4667H243.207H246.207V44.68H243.207ZM243.207 76.4667L244.689 79.0749L259.516 70.6482L258.033 68.04L256.551 65.4318L241.724 73.8585L243.207 76.4667ZM281.125 26.9733V23.9733H278.125V26.9733H281.125ZM298.938 26.9733L301.222 25.0279L300.324 23.9733H298.938V26.9733ZM306.298 35.6133L304.015 37.5587L306.282 40.2204L308.568 37.5749L306.298 35.6133ZM313.765 26.9733V23.9733H312.393L311.495 25.0117L313.765 26.9733ZM331.472 26.9733H334.472V23.9733H331.472V26.9733ZM331.472 133.64V136.64H334.472V133.64H331.472ZM313.765 133.64H310.765V136.64H313.765V133.64ZM313.765 54.28H316.765V46.2205L311.495 52.3184L313.765 54.28ZM306.298 62.92L304.015 64.8654L306.282 67.5271L308.568 64.8816L306.298 62.92ZM298.938 54.28L301.222 52.3346L295.938 46.132V54.28H298.938ZM298.938 133.64V136.64H301.938V133.64H298.938ZM281.125 133.64H278.125V136.64H281.125V133.64ZM281.125 61.8533H284.125V44.68H281.125H278.125V61.8533H281.125ZM281.125 44.68H284.125V26.9733H281.125H278.125V44.68H281.125ZM281.125 26.9733V29.9733H298.938V26.9733V23.9733H281.125V26.9733ZM298.938 26.9733L296.655 28.9187L304.015 37.5587L306.298 35.6133L308.582 33.6679L301.222 25.0279L298.938 26.9733ZM306.298 35.6133L308.568 37.5749L316.035 28.9349L313.765 26.9733L311.495 25.0117L304.029 33.6517L306.298 35.6133ZM313.765 26.9733V29.9733H331.472V26.9733V23.9733H313.765V26.9733ZM331.472 26.9733H328.472V133.64H331.472H334.472V26.9733H331.472ZM331.472 133.64V130.64H313.765V133.64V136.64H331.472V133.64ZM313.765 133.64H316.765V54.28H313.765H310.765V133.64H313.765ZM313.765 54.28L311.495 52.3184L304.029 60.9584L306.298 62.92L308.568 64.8816L316.035 56.2416L313.765 54.28ZM306.298 62.92L308.582 60.9746L301.222 52.3346L298.938 54.28L296.655 56.2254L304.015 64.8654L306.298 62.92ZM298.938 54.28H295.938V133.64H298.938H301.938V54.28H298.938ZM298.938 133.64V130.64H281.125V133.64V136.64H298.938V133.64ZM281.125 133.64H284.125V61.8533H281.125H278.125V133.64H281.125Z" fill="white" mask="url(#path-1-outside-1_251_16)"/>
</svg>
