<svg width="255" height="255" viewBox="0 0 255 255" fill="none" xmlns="http://www.w3.org/2000/svg">
<rect width="255" height="255" rx="25" fill="#37527F"/>
<path d="M179.596 44.5663C180.336 43.9281 181.416 43.792 182.41 44.3505C209.401 57.7957 216.318 71.5057 214.672 82.8309C213.852 88.4789 210.904 93.5004 207.314 97.5614C203.952 101.365 200.019 104.335 196.717 106.2C199.799 106.202 203.31 106.972 206.5 107.96C209.525 108.897 212.276 110.032 214.122 110.904L214.856 111.261L214.912 111.288L214.939 111.345C215.748 112.973 217.17 114.396 218.631 115.517C220.091 116.637 221.576 117.444 222.493 117.843L222.556 117.87L222.586 117.932C223.011 118.805 223.385 120.166 223.716 121.899C224.049 123.637 224.342 125.765 224.599 128.18C225.114 133.009 225.489 138.997 225.756 145.342C226.29 158.031 226.394 172.154 226.325 181.285L226.324 181.425L226.189 181.463C217.873 183.811 209.405 189.024 202.192 194.597C194.981 200.167 189.038 206.087 185.774 209.834L185.629 210L185.49 209.83C185.317 209.62 184.997 209.328 184.549 208.968C184.104 208.609 183.541 208.19 182.889 207.726C181.585 206.799 179.929 205.699 178.155 204.556C174.606 202.269 170.589 199.817 167.972 198.258L167.954 198.247L167.938 198.231C164.161 194.581 157.816 191.169 151.399 188.384C144.988 185.601 138.527 183.455 134.539 182.33L134.495 182.317L134.461 182.287C132.946 180.875 131.522 178.449 130.36 176.012C129.195 173.569 128.283 171.091 127.798 169.553L127.78 169.494L127.799 169.435C137.083 142.267 133.165 122.9 131.303 100.002L131.298 99.9403L131.331 99.8885C132.794 97.5216 134.867 95.5013 137.575 93.412C140.281 91.3238 143.634 89.1576 147.661 86.5057C155.717 81.1996 166.506 73.9248 180.341 61.3671C181.762 60.078 182.421 58.7866 182.614 57.5331C182.807 56.2759 182.534 55.035 182.05 53.8426C181.566 52.6489 180.878 51.518 180.25 50.4794C179.628 49.452 179.055 48.4971 178.84 47.6854C178.481 46.328 178.853 45.207 179.596 44.5663ZM133.594 174.776L136.487 180.844L136.536 180.944L136.647 180.949C144.287 181.294 153.708 185.419 162.399 190.458C171.083 195.493 179.01 201.424 183.653 205.347L184.174 205.787L183.95 205.142C180.372 194.882 171.243 187.645 161.325 182.766C151.402 177.886 140.656 175.351 133.785 174.511L133.448 174.47L133.594 174.776ZM219.027 174.011C214.854 176.151 208.121 179.943 201.479 184.361C194.841 188.777 188.277 193.832 184.456 198.5L184.417 198.546L184.414 198.605C184.342 199.695 184.799 202.322 187.167 204.307L187.297 204.417L187.418 204.297C191.409 200.315 198.046 194.28 204.984 189.121C208.453 186.541 211.995 184.183 215.316 182.41C218.64 180.635 221.728 179.455 224.295 179.216L224.708 179.178L224.406 178.894L219.24 174.041L219.144 173.95L219.027 174.011ZM132.936 169.149L163.314 178.337C162.818 176.673 162.901 176.314 162.281 175.563L135.829 167.416L142.855 142.281C142.524 139.092 141.615 137.254 141.202 136.734L132.936 169.149ZM217.685 118.888L219.751 170.196C219.755 171.11 220.43 171.993 221.208 172.705C221.997 173.428 222.942 174.018 223.573 174.342L223.844 174.48V174.176C223.844 172.501 222.466 141.111 221.778 125.632V125.627L221.754 125.395C221.608 124.227 220.986 122.919 220.267 121.755C219.497 120.507 218.602 119.397 218.009 118.754L217.665 118.38L217.685 118.888ZM182.824 112.499C180.601 114.432 178.876 115.519 177.629 116.093C177.006 116.38 176.505 116.538 176.123 116.61C175.736 116.683 175.488 116.666 175.36 116.623L175.223 116.577L175.144 116.696C174.711 117.349 174.337 118.426 174.009 119.814C173.68 121.209 173.393 122.94 173.142 124.92C172.641 128.879 172.285 133.848 172.04 139.139C171.549 149.721 171.497 161.608 171.6 169.324L171.603 169.54L171.816 169.506C173.602 169.22 175.615 167.98 177.389 166.573C179.17 165.161 180.739 163.557 181.641 162.51L181.705 162.436L181.681 162.343C180.366 157.104 180.329 147.742 180.824 138.143C181.318 128.554 182.34 118.756 183.131 112.664L183.195 112.176L182.824 112.499ZM191.419 58.9051C181.004 74.991 154.703 90.6836 142.855 96.5194C139.342 98.7728 138.653 101.026 138.515 101.026C141.16 108.376 141.408 123.965 141.202 130.841C141.162 132.92 142.287 133.787 142.855 133.961C144.386 128.968 143.268 111.253 141.202 102.066C141.822 99.4664 143.131 98.9461 144.508 97.9061C157.114 92.0125 178.607 78.4925 189.56 65.4921C190.8 62.5454 191.764 60.0031 191.419 58.9051ZM209.625 71.5604C209.79 91.8288 194.493 100.916 186.827 102.926L186.28 103.069L186.804 103.279L191.557 105.186L191.636 105.218L191.711 105.18C203.315 99.2704 208.798 92.4341 210.918 86.2665C213.038 80.1022 211.79 74.6294 209.974 71.4657L209.62 70.8485L209.625 71.5604Z" fill="#FAD06C"/>
<path d="M75.7476 44.5668C75.0077 43.9286 73.9275 43.7925 72.9341 44.351C45.9426 57.7962 39.0262 71.5062 40.6714 82.8314C41.4919 88.4794 44.44 93.5009 48.0298 97.5619C51.3917 101.365 55.3249 104.336 58.6265 106.201C55.5444 106.203 52.0342 106.973 48.8442 107.96C45.8187 108.897 43.0681 110.033 41.2222 110.905L40.4878 111.261L40.4321 111.288L40.4048 111.345C39.596 112.973 38.1738 114.397 36.7124 115.518C35.2527 116.638 33.7676 117.444 32.8511 117.843L32.7876 117.87L32.7573 117.933C32.3327 118.806 31.9592 120.166 31.6274 121.9C31.2949 123.638 31.0022 125.766 30.7446 128.18C30.2296 133.009 29.8544 138.998 29.5874 145.342C29.0534 158.032 28.9501 172.154 29.019 181.286L29.02 181.425L29.1548 181.463C37.4705 183.811 45.939 189.025 53.1519 194.597C60.3625 200.168 66.3056 206.088 69.5698 209.834L69.7144 210L69.854 209.83C70.0271 209.621 70.3465 209.329 70.7944 208.968C71.2395 208.61 71.8024 208.191 72.4546 207.727C73.7587 206.8 75.4146 205.699 77.189 204.556C80.7376 202.27 84.7551 199.817 87.3716 198.258L87.3901 198.247L87.4058 198.232C91.1826 194.582 97.5279 191.169 103.945 188.384C110.356 185.602 116.817 183.455 120.805 182.33L120.849 182.318L120.882 182.287C122.398 180.875 123.822 178.449 124.984 176.012C126.149 173.57 127.061 171.092 127.545 169.553L127.564 169.495L127.544 169.436C118.261 142.267 122.179 122.9 124.041 100.002L124.045 99.9408L124.013 99.889C122.55 97.5221 120.477 95.5018 117.769 93.4125C115.063 91.3243 111.709 89.1581 107.683 86.5062C99.6271 81.2001 88.8382 73.9253 75.0024 61.3676C73.5822 60.0785 72.9227 58.7871 72.73 57.5336C72.5368 56.2764 72.8099 55.0355 73.2935 53.8431C73.7776 52.6494 74.4662 51.5185 75.0942 50.4799C75.7154 49.4525 76.2884 48.4976 76.5034 47.6859C76.8629 46.3286 76.4903 45.2076 75.7476 44.5668ZM121.75 174.778L118.857 180.845L118.808 180.946L118.697 180.951C111.057 181.295 101.636 185.42 92.9448 190.459C84.2605 195.494 76.3335 201.425 71.6909 205.348L71.1694 205.788L71.394 205.144C74.9722 194.884 84.1002 187.646 94.019 182.768C103.942 177.888 114.688 175.352 121.559 174.512L121.896 174.471L121.75 174.778ZM36.3169 174.011C40.49 176.152 47.2231 179.943 53.8647 184.362C60.5025 188.778 67.0671 193.832 70.8882 198.5L70.9263 198.546L70.9302 198.606C71.0021 199.695 70.5443 202.323 68.1772 204.308L68.0464 204.417L67.9253 204.297C63.935 200.315 57.298 194.28 50.3599 189.121C46.8908 186.542 43.3487 184.184 40.0278 182.411C36.7037 180.636 33.6152 179.455 31.0483 179.216L30.6362 179.178L30.938 178.895L36.104 174.041L36.1997 173.951L36.3169 174.011ZM122.408 169.15L92.0298 178.337C92.5257 176.673 92.4431 176.315 93.063 175.564L119.515 167.416L112.489 142.282C112.819 139.092 113.729 137.255 114.142 136.735L122.408 169.15ZM37.6577 118.889L35.5913 170.198C35.5875 171.112 34.9129 171.995 34.1353 172.706C33.3454 173.429 32.4011 174.02 31.77 174.343L31.4985 174.482V174.177C31.4985 172.508 32.8763 141.113 33.5649 125.633V125.628L33.5884 125.397C33.7342 124.228 34.3571 122.921 35.0757 121.756C35.8453 120.509 36.7409 119.399 37.3335 118.755L37.6782 118.381L37.6577 118.889ZM72.52 112.5C74.7426 114.434 76.4675 115.52 77.7144 116.094C78.3376 116.381 78.8393 116.539 79.2212 116.612C79.6073 116.685 79.8556 116.667 79.9839 116.624L80.1206 116.578L80.1997 116.698C80.6323 117.351 81.0064 118.427 81.3345 119.816C81.6639 121.21 81.951 122.942 82.2017 124.921C82.703 128.881 83.0587 133.849 83.3042 139.14C83.7952 149.723 83.847 161.61 83.7437 169.326L83.7407 169.541L83.5278 169.507C81.7418 169.222 79.7291 167.982 77.9546 166.575C76.1739 165.162 74.6047 163.559 73.7026 162.511L73.6392 162.438L73.6626 162.344C74.9774 157.106 75.0144 147.744 74.52 138.145C74.0261 128.555 73.0041 118.757 72.2124 112.665L72.1489 112.177L72.52 112.5ZM63.9243 58.9056C74.34 74.9915 100.641 90.6842 112.489 96.5199C116.002 98.7733 116.691 101.027 116.829 101.027C114.183 108.376 113.935 123.965 114.142 130.841C114.182 132.921 113.056 133.788 112.489 133.961C110.957 128.969 112.076 111.254 114.142 102.067C113.522 99.4669 112.213 98.9466 110.835 97.9066C98.2294 92.0131 76.7365 78.4931 65.7837 65.4926C64.5438 62.5459 63.58 60.0035 63.9243 58.9056ZM45.7183 71.5609C45.5541 91.8294 60.8511 100.916 68.5171 102.926L69.064 103.07L68.5396 103.28L63.7866 105.187L63.7075 105.218L63.6323 105.18C52.0291 99.2709 46.5461 92.4346 44.4253 86.267C42.3058 80.1027 43.5536 74.6299 45.3696 71.4662L45.7241 70.849L45.7183 71.5609Z" fill="#FAD06C"/>
</svg>
