<svg width="185" height="206" viewBox="0 0 185 206" fill="none" xmlns="http://www.w3.org/2000/svg">
<path d="M119.19 5.25977V22.3555C126.026 23.2809 140.403 25.483 143.219 26.8857V8.03613L185 18.9951V120.107C175.659 173.472 127.769 191.184 95.5654 204.327L92.5 205.586C60.3605 192.289 9.64184 175.193 0 120.107V18.9951L41.7812 8.03613V26.8857C44.5973 25.483 58.9736 23.2809 65.8096 22.3555V5.25977L92.5 0L119.19 5.25977ZM92.5 31.5654C70.4044 31.5654 20.8607 41.6198 3.84277 48.1709V122.418C10.9793 157.963 37.3294 183.353 92.5 201.469L95.0654 200.614C148.49 182.557 174.132 157.408 181.157 122.418V48.1709C164.405 41.7222 116.136 31.8783 93.5557 31.5723L92.5 31.5654Z" fill="#FAD06C"/>
<path d="M131.064 49.275C131.61 48.8042 132.408 48.7048 133.141 49.1197H133.14C152.985 59.0069 158.07 69.0884 156.86 77.4166C156.257 81.5702 154.089 85.2631 151.449 88.2496C148.977 91.0466 146.083 93.2306 143.655 94.6021C145.922 94.6038 148.504 95.1697 150.85 95.8961C153.392 96.6834 155.672 97.662 156.995 98.3238L157.036 98.3443L157.057 98.3854C157.651 99.5826 158.698 100.63 159.772 101.455C160.712 102.175 161.666 102.719 162.341 103.041L162.612 103.165L162.658 103.185L162.681 103.231C162.993 103.873 163.268 104.873 163.512 106.148C163.756 107.426 163.972 108.991 164.161 110.766C164.54 114.318 164.815 118.722 165.012 123.388C165.404 132.721 165.481 143.106 165.431 149.822L165.43 149.925L165.33 149.953C159.215 151.68 152.987 155.514 147.683 159.612C142.38 163.709 138.009 168.062 135.608 170.818L135.502 170.94L135.398 170.815C135.271 170.661 135.036 170.446 134.707 170.181C134.38 169.918 133.966 169.609 133.486 169.268C132.527 168.586 131.31 167.777 130.005 166.936C127.395 165.255 124.44 163.451 122.516 162.304L122.502 162.296L122.49 162.285C119.713 159.601 115.046 157.091 110.327 155.043C105.612 152.996 100.861 151.418 97.9277 150.59L97.8955 150.582L97.8711 150.559C96.7568 149.521 95.7092 147.736 94.8545 145.944C93.9979 144.148 93.327 142.325 92.9707 141.194L92.957 141.151L92.9717 141.108C99.7993 121.127 96.9177 106.884 95.5488 90.0445L95.5449 89.9996L95.5684 89.9605C96.6444 88.2199 98.1697 86.7344 100.161 85.1979C102.151 83.6622 104.617 82.0689 107.578 80.1188C113.503 76.2165 121.437 70.8658 131.612 61.6305C132.657 60.6825 133.142 59.733 133.284 58.8111C133.426 57.8867 133.226 56.974 132.87 56.0973C132.514 55.2193 132.007 54.3875 131.545 53.6236C131.088 52.8681 130.667 52.1659 130.509 51.5689C130.244 50.5709 130.518 49.7463 131.064 49.275ZM97.2334 145.035L99.3613 149.497L99.3965 149.571L99.4785 149.575C105.097 149.828 112.026 152.862 118.418 156.568C124.805 160.271 130.635 164.632 134.049 167.517L134.432 167.841L134.267 167.368C131.635 159.822 124.922 154.499 117.628 150.912C110.331 147.323 102.427 145.458 97.374 144.84L97.126 144.809L97.2334 145.035ZM160.063 144.472C156.994 146.047 152.043 148.835 147.158 152.085C142.277 155.332 137.449 159.049 134.639 162.482L134.611 162.516L134.608 162.56C134.556 163.361 134.892 165.293 136.633 166.754L136.729 166.835L136.817 166.746C139.752 163.817 144.634 159.379 149.736 155.585C152.287 153.688 154.892 151.954 157.334 150.65C159.779 149.345 162.051 148.476 163.938 148.3L164.241 148.272L164.02 148.064L160.22 144.495L160.149 144.428L160.063 144.472ZM96.75 140.897L119.091 147.654C118.726 146.43 118.787 146.166 118.331 145.614L98.877 139.623L104.045 121.138C103.802 118.793 103.133 117.441 102.829 117.058L96.75 140.897ZM159.077 103.934L160.597 141.668C160.599 142.34 161.095 142.99 161.667 143.513C162.248 144.045 162.943 144.478 163.407 144.716L163.606 144.819V144.594C163.606 143.366 162.593 120.279 162.087 108.894V108.89L162.069 108.72C161.962 107.861 161.504 106.899 160.976 106.043C160.409 105.125 159.75 104.309 159.314 103.836L159.062 103.56L159.077 103.934ZM133.439 99.235C131.805 100.657 130.536 101.456 129.619 101.879C129.161 102.089 128.793 102.205 128.512 102.258C128.228 102.312 128.045 102.3 127.95 102.268L127.85 102.234L127.792 102.322C127.474 102.802 127.198 103.594 126.957 104.615C126.715 105.64 126.504 106.914 126.319 108.37C125.951 111.282 125.689 114.936 125.509 118.827C125.148 126.61 125.11 135.351 125.186 141.026L125.188 141.185L125.344 141.16C126.657 140.95 128.138 140.038 129.443 139.003C130.753 137.964 131.906 136.785 132.569 136.014L132.616 135.961L132.599 135.892C131.632 132.04 131.604 125.154 131.968 118.094C132.331 111.042 133.084 103.836 133.666 99.3561L133.712 98.9977L133.439 99.235ZM139.761 59.8199C132.101 71.65 112.759 83.1911 104.045 87.483C101.464 89.1384 100.956 90.7938 100.854 90.7975C102.799 96.2026 102.981 107.668 102.829 112.724C102.8 114.254 103.628 114.892 104.045 115.019C105.171 111.348 104.349 98.3196 102.829 91.5631C103.285 89.651 104.248 89.2683 105.261 88.5035C114.532 84.1692 130.337 74.2256 138.393 64.6647C139.304 62.4975 140.014 60.6273 139.761 59.8199ZM153.148 69.1275C153.269 84.0339 142.018 90.7172 136.381 92.1949L135.979 92.3004L136.365 92.4557L139.86 93.857L139.918 93.8805L139.974 93.8521C148.507 89.5065 152.54 84.4787 154.1 79.943C155.658 75.4097 154.741 71.3849 153.405 69.0582L153.145 68.6041L153.148 69.1275Z" fill="white"/>
<path d="M54.6914 49.2746C54.1456 48.8038 53.3477 48.7042 52.6152 49.1193H52.6162C32.7705 59.0065 27.6856 69.088 28.8955 77.4162C29.4991 81.5696 31.6667 85.2628 34.3066 88.2492C36.7791 91.0461 39.6725 93.2303 42.1006 94.6017C39.8339 94.6034 37.2524 95.1693 34.9062 95.8957C32.3633 96.683 30.0843 97.6616 28.7607 98.3234L28.7197 98.3439L28.6992 98.385C28.1044 99.5822 27.0581 100.63 25.9834 101.454C25.044 102.175 24.0902 102.719 23.415 103.04L23.1436 103.164L23.0977 103.185L23.0752 103.231C22.763 103.872 22.4881 104.873 22.2441 106.148C21.9996 107.426 21.7841 108.99 21.5947 110.766C21.2159 114.317 20.9405 118.722 20.7441 123.388C20.3514 132.72 20.2745 143.106 20.3252 149.821L20.3262 149.925L20.4258 149.952C26.5413 151.679 32.7688 155.513 38.0732 159.612C43.3762 163.708 47.7468 168.062 50.1475 170.818L50.2539 170.94L50.3574 170.815C50.4847 170.66 50.7195 170.446 51.0488 170.181C51.3761 169.917 51.7899 169.609 52.2695 169.268C53.2285 168.586 54.4462 167.776 55.751 166.936C58.3608 165.254 61.316 163.451 63.2402 162.304L63.2539 162.296L63.2656 162.284C66.0433 159.6 70.7097 157.09 75.4287 155.042C80.1439 152.996 84.895 151.417 87.8281 150.59L87.8604 150.581L87.8848 150.559C88.9991 149.52 90.0466 147.736 90.9014 145.944C91.7579 144.148 92.4288 142.325 92.7852 141.194L92.7988 141.151L92.7842 141.108C85.9566 121.127 88.8381 106.884 90.207 90.0441L90.2109 89.9992L90.1875 89.9601C89.1114 88.2195 87.5861 86.734 85.5947 85.1975C83.6045 83.6618 81.1386 82.0685 78.1777 80.1184C72.2532 76.2161 64.3187 70.8653 54.1436 61.6301C53.0992 60.6822 52.6135 59.7325 52.4717 58.8107C52.3297 57.8864 52.5303 56.9735 52.8857 56.0969C53.2418 55.219 53.7491 54.387 54.2109 53.6232C54.6677 52.8678 55.0888 52.1654 55.2471 51.5685C55.5114 50.5705 55.2374 49.7459 54.6914 49.2746ZM88.5225 145.034L86.3945 149.496L86.3594 149.571L86.2773 149.574C80.6588 149.828 73.7295 152.862 67.3379 156.568C60.9513 160.27 55.1214 164.632 51.707 167.517L51.3242 167.841L51.4893 167.367C54.1207 159.822 60.8334 154.499 68.1279 150.911C75.4252 147.322 83.3287 145.458 88.3818 144.84L88.6299 144.809L88.5225 145.034ZM25.6934 144.472C28.7624 146.046 33.7141 148.835 38.5986 152.084C43.4802 155.332 48.308 159.048 51.1182 162.482L51.1455 162.516L51.1484 162.56C51.2013 163.361 50.8647 165.293 49.124 166.753L49.0283 166.834L48.9395 166.745C46.0048 163.817 41.1231 159.378 36.0205 155.584C33.4694 153.687 30.8649 151.953 28.4229 150.65C25.9781 149.344 23.7062 148.476 21.8184 148.3L21.5156 148.272L21.7373 148.064L25.5371 144.494L25.6074 144.428L25.6934 144.472ZM89.0059 140.897L66.665 147.654C67.0298 146.43 66.9689 146.166 67.4248 145.613L86.8789 139.622L81.7109 121.138C81.9541 118.792 82.6228 117.44 82.9268 117.058L89.0059 140.897ZM26.6787 103.934L25.1592 141.667C25.1564 142.34 24.6608 142.989 24.0889 143.513C23.508 144.044 22.8127 144.478 22.3486 144.716L22.1494 144.819V144.594C22.1494 143.366 23.1625 120.279 23.6689 108.894V108.89L23.6865 108.72C23.7937 107.86 24.2518 106.899 24.7803 106.042C25.3464 105.125 26.0056 104.308 26.4414 103.835L26.6943 103.56L26.6787 103.934ZM52.3174 99.2355C53.9519 100.657 55.2207 101.457 56.1377 101.879C56.5957 102.09 56.9644 102.206 57.2451 102.259C57.5293 102.313 57.7122 102.3 57.8066 102.269L57.9072 102.235L57.9648 102.322C58.283 102.803 58.5586 103.594 58.7998 104.615C59.042 105.641 59.2532 106.915 59.4375 108.37C59.8062 111.282 60.0675 114.936 60.248 118.827C60.6091 126.61 60.6473 135.352 60.5713 141.027L60.5693 141.186L60.4131 141.16C59.0996 140.95 57.6185 140.038 56.3135 139.003C55.0042 137.965 53.8509 136.785 53.1875 136.015L53.1406 135.961L53.1582 135.893C54.1251 132.04 54.1527 125.154 53.7891 118.095C53.4258 111.042 52.673 103.837 52.0908 99.3566L52.0449 98.9982L52.3174 99.2355ZM45.9951 59.8195C53.6549 71.6495 72.9971 83.1907 81.7109 87.4826C84.2946 89.1398 84.802 90.7971 84.9033 90.7971C82.958 96.2022 82.7748 107.667 82.9268 112.724C82.9559 114.254 82.1283 114.891 81.7109 115.019C80.5847 111.347 81.407 98.3192 82.9268 91.5627C82.4708 89.6505 81.5083 89.268 80.4951 88.5031C71.2242 84.1688 55.4183 74.2252 47.3633 64.6642C46.4514 62.4971 45.7418 60.6269 45.9951 59.8195ZM32.6074 69.1271C32.4867 84.0335 43.7374 90.7168 49.375 92.1945L49.7764 92.3L49.3906 92.4553L45.8955 93.8566L45.8379 93.8801L45.7822 93.8517C37.2489 89.506 33.216 84.4784 31.6562 79.9426C30.0976 75.4094 31.0151 71.3845 32.3506 69.0578L32.6113 68.6037L32.6074 69.1271Z" fill="white"/>
<path d="M87.4408 185.268V190.025H83.1223V184.518L85.9128 182.907V182.386H84.9339H84.6411V182.642L83.1223 183.52V182.386V180.867H87.4408V183.786L84.6411 185.396V188.488H84.8973H85.9128V186.146L87.4408 185.268ZM89.4215 182.386V188.488H90.6932V182.386H89.4215ZM87.8935 180.867H92.212V190.025H87.8935V180.867ZM96.9833 185.268V190.025H92.6648V184.518L95.4553 182.907V182.386H94.4764H94.1836V182.642L92.6648 183.52V182.386V180.867H96.9833V183.786L94.1836 185.396V188.488H94.4398H95.4553V186.146L96.9833 185.268ZM98.964 182.386V188.488H100.236V182.386H98.964ZM97.436 180.867H101.755V190.025H97.436V180.867Z" fill="white"/>
</svg>
