<svg width="29" height="29" viewBox="0 0 29 29" fill="none" xmlns="http://www.w3.org/2000/svg">
<path d="M4.84422 23.4058C2.38281 20.9444 1 17.606 1 14.125C1 10.644 2.38281 7.30564 4.84422 4.84422C7.30564 2.38281 10.644 1 14.125 1C17.606 1 20.9444 2.38281 23.4058 4.84422C25.8672 7.30564 27.25 10.644 27.25 14.125C27.25 17.606 25.8672 20.9444 23.4058 23.4058C20.9444 25.8672 17.606 27.25 14.125 27.25C10.644 27.25 7.30564 25.8672 4.84422 23.4058Z" stroke="white" stroke-width="2" stroke-linejoin="round"/>
<path d="M10.1475 4.84422C9.09263 7.30564 8.5 10.644 8.5 14.125C8.5 17.606 9.09263 20.9444 10.1475 23.4058C11.2024 25.8672 12.6332 27.25 14.125 27.25C15.6168 27.25 17.0476 25.8672 18.1025 23.4058C19.1574 20.9444 19.75 17.606 19.75 14.125C19.75 10.644 19.1574 7.30564 18.1025 4.84422C17.0476 2.38281 15.6168 1 14.125 1C12.6332 1 11.2024 2.38281 10.1475 4.84422Z" stroke="white" stroke-width="2" stroke-linejoin="round"/>
<path d="M1.9375 18.5H26.3125M1.9375 9.75H26.3125" stroke="white" stroke-width="2" stroke-linecap="round"/>
</svg>
